<svg width="60" height="60" viewBox="0 0 60 60" fill="none" xmlns="http://www.w3.org/2000/svg">
<circle cx="30" cy="30" r="30" fill="#F8F8F8" fill-opacity="0.9"/>
<path d="M28.375 42.2983C26.7699 42.2983 25.4027 41.8615 24.2734 40.9879C23.1442 40.1072 22.2813 38.8324 21.6847 37.1634C21.0881 35.4872 20.7898 33.4631 20.7898 31.0909C20.7898 28.733 21.0881 26.7195 21.6847 25.0504C22.2884 23.3743 23.1548 22.0959 24.2841 21.2152C25.4205 20.3274 26.7841 19.8835 28.375 19.8835C29.9659 19.8835 31.326 20.3274 32.4553 21.2152C33.5916 22.0959 34.4581 23.3743 35.0547 25.0504C35.6584 26.7195 35.9602 28.733 35.9602 31.0909C35.9602 33.4631 35.6619 35.4872 35.0653 37.1634C34.4688 38.8324 33.6058 40.1072 32.4766 40.9879C31.3473 41.8615 29.9801 42.2983 28.375 42.2983ZM28.375 39.9545C29.9659 39.9545 31.2017 39.1875 32.0824 37.6534C32.9631 36.1193 33.4034 33.9318 33.4034 31.0909C33.4034 29.2017 33.201 27.593 32.7962 26.2649C32.3984 24.9368 31.8232 23.9247 31.0703 23.2287C30.3246 22.5327 29.4261 22.1847 28.375 22.1847C26.7983 22.1847 25.5661 22.9624 24.6783 24.5178C23.7905 26.0661 23.3466 28.2571 23.3466 31.0909C23.3466 32.9801 23.5455 34.5852 23.9432 35.9062C24.3409 37.2273 24.9126 38.2322 25.6584 38.9212C26.4112 39.6101 27.3168 39.9545 28.375 39.9545Z" fill="black" fill-opacity="0.86"/>
</svg>
