<svg width="60" height="60" viewBox="0 0 60 60" fill="none" xmlns="http://www.w3.org/2000/svg">
<circle cx="30" cy="30" r="30" fill="#0B0B0B"/>
<path d="M23.2585 42V40.0824L30.4602 32.1989C31.3054 31.2756 32.0014 30.473 32.5483 29.7912C33.0952 29.1023 33.5 28.456 33.7628 27.8523C34.0327 27.2415 34.1676 26.6023 34.1676 25.9347C34.1676 25.1676 33.983 24.5036 33.6136 23.9425C33.2514 23.3814 32.7543 22.9482 32.1222 22.6428C31.4901 22.3374 30.7798 22.1847 29.9915 22.1847C29.1534 22.1847 28.4219 22.3587 27.7969 22.7067C27.179 23.0476 26.6996 23.527 26.3587 24.1449C26.0249 24.7628 25.858 25.4872 25.858 26.3182H23.3438C23.3438 25.0398 23.6385 23.9176 24.228 22.9517C24.8175 21.9858 25.62 21.233 26.6357 20.6932C27.6584 20.1534 28.8054 19.8835 30.0767 19.8835C31.3551 19.8835 32.4879 20.1534 33.4751 20.6932C34.4624 21.233 35.2365 21.9609 35.7976 22.8771C36.3587 23.7933 36.6392 24.8125 36.6392 25.9347C36.6392 26.7372 36.4936 27.522 36.2024 28.2891C35.9183 29.049 35.4212 29.8977 34.7109 30.8352C34.0078 31.7656 33.0312 32.902 31.7812 34.2443L26.8807 39.4858V39.6562H37.0227V42H23.2585Z" fill="white"/>
</svg>
