<svg width="60" height="60" viewBox="0 0 60 60" fill="none" xmlns="http://www.w3.org/2000/svg">
<circle cx="30" cy="30" r="30" fill="#F8F8F8" fill-opacity="0.9"/>
<path d="M21.2585 42V40.0824L28.4602 32.1989C29.3054 31.2756 30.0014 30.473 30.5483 29.7912C31.0952 29.1023 31.5 28.456 31.7628 27.8523C32.0327 27.2415 32.1676 26.6023 32.1676 25.9347C32.1676 25.1676 31.983 24.5036 31.6136 23.9425C31.2514 23.3814 30.7543 22.9482 30.1222 22.6428C29.4901 22.3374 28.7798 22.1847 27.9915 22.1847C27.1534 22.1847 26.4219 22.3587 25.7969 22.7067C25.179 23.0476 24.6996 23.527 24.3587 24.1449C24.0249 24.7628 23.858 25.4872 23.858 26.3182H21.3438C21.3438 25.0398 21.6385 23.9176 22.228 22.9517C22.8175 21.9858 23.62 21.233 24.6357 20.6932C25.6584 20.1534 26.8054 19.8835 28.0767 19.8835C29.3551 19.8835 30.4879 20.1534 31.4751 20.6932C32.4624 21.233 33.2365 21.9609 33.7976 22.8771C34.3587 23.7933 34.6392 24.8125 34.6392 25.9347C34.6392 26.7372 34.4936 27.522 34.2024 28.2891C33.9183 29.049 33.4212 29.8977 32.7109 30.8352C32.0078 31.7656 31.0312 32.902 29.7812 34.2443L24.8807 39.4858V39.6562H35.0227V42H21.2585Z" fill="black" fill-opacity="0.86"/>
</svg>
