<svg width="60" height="60" viewBox="0 0 60 60" fill="none" xmlns="http://www.w3.org/2000/svg">
<circle cx="30" cy="30" r="30" fill="#0B0B0B"/>
<path d="M30.6307 42.2983C29.2244 42.2983 27.9709 42.0568 26.87 41.5739C25.7763 41.0909 24.9063 40.4197 24.2599 39.5604C23.6207 38.6939 23.2727 37.6889 23.2159 36.5455H25.9006C25.9574 37.2486 26.1989 37.8558 26.625 38.3672C27.0511 38.8714 27.6087 39.2621 28.2976 39.5391C28.9865 39.8161 29.75 39.9545 30.5881 39.9545C31.5256 39.9545 32.3565 39.7912 33.081 39.4645C33.8054 39.1378 34.3736 38.6832 34.7855 38.1009C35.1974 37.5185 35.4034 36.8438 35.4034 36.0767C35.4034 35.2741 35.2045 34.5675 34.8068 33.9567C34.4091 33.3388 33.8267 32.8558 33.0597 32.5078C32.2926 32.1598 31.3551 31.9858 30.2472 31.9858H28.5V29.642H30.2472C31.1136 29.642 31.8736 29.4858 32.527 29.1733C33.1875 28.8608 33.7024 28.4205 34.0717 27.8523C34.4482 27.2841 34.6364 26.6165 34.6364 25.8494C34.6364 25.1108 34.473 24.468 34.1463 23.9212C33.8196 23.3743 33.358 22.9482 32.7614 22.6428C32.1719 22.3374 31.4759 22.1847 30.6733 22.1847C29.9205 22.1847 29.2102 22.3232 28.5426 22.6001C27.8821 22.87 27.3423 23.2642 26.9233 23.7827C26.5043 24.294 26.277 24.9119 26.2415 25.6364H23.6847C23.7273 24.4929 24.0717 23.4915 24.718 22.6321C25.3643 21.7656 26.2095 21.0909 27.2536 20.608C28.3047 20.125 29.4588 19.8835 30.7159 19.8835C32.0653 19.8835 33.223 20.157 34.1889 20.7038C35.1548 21.2436 35.897 21.9574 36.4155 22.8452C36.9339 23.733 37.1932 24.6918 37.1932 25.7216C37.1932 26.9503 36.87 27.9979 36.2237 28.8643C35.5845 29.7308 34.7145 30.331 33.6136 30.6648V30.8352C34.9915 31.0625 36.0675 31.6484 36.8416 32.593C37.6158 33.5305 38.0028 34.6918 38.0028 36.0767C38.0028 37.2628 37.6797 38.3281 37.0334 39.2727C36.3942 40.2102 35.5206 40.9489 34.4126 41.4886C33.3047 42.0284 32.044 42.2983 30.6307 42.2983Z" fill="white"/>
</svg>
