<svg width="60" height="60" viewBox="0 0 60 60" fill="none" xmlns="http://www.w3.org/2000/svg">
<circle cx="30" cy="30" r="30" fill="#F8F8F8" fill-opacity="0.9"/>
<path d="M28.6307 42.2983C27.2244 42.2983 25.9709 42.0568 24.87 41.5739C23.7763 41.0909 22.9063 40.4197 22.2599 39.5604C21.6207 38.6939 21.2727 37.6889 21.2159 36.5455H23.9006C23.9574 37.2486 24.1989 37.8558 24.625 38.3672C25.0511 38.8714 25.6087 39.2621 26.2976 39.5391C26.9865 39.8161 27.75 39.9545 28.5881 39.9545C29.5256 39.9545 30.3565 39.7912 31.081 39.4645C31.8054 39.1378 32.3736 38.6832 32.7855 38.1009C33.1974 37.5185 33.4034 36.8438 33.4034 36.0767C33.4034 35.2741 33.2045 34.5675 32.8068 33.9567C32.4091 33.3388 31.8267 32.8558 31.0597 32.5078C30.2926 32.1598 29.3551 31.9858 28.2472 31.9858H26.5V29.642H28.2472C29.1136 29.642 29.8736 29.4858 30.527 29.1733C31.1875 28.8608 31.7024 28.4205 32.0717 27.8523C32.4482 27.2841 32.6364 26.6165 32.6364 25.8494C32.6364 25.1108 32.473 24.468 32.1463 23.9212C31.8196 23.3743 31.358 22.9482 30.7614 22.6428C30.1719 22.3374 29.4759 22.1847 28.6733 22.1847C27.9205 22.1847 27.2102 22.3232 26.5426 22.6001C25.8821 22.87 25.3423 23.2642 24.9233 23.7827C24.5043 24.294 24.277 24.9119 24.2415 25.6364H21.6847C21.7273 24.4929 22.0717 23.4915 22.718 22.6321C23.3643 21.7656 24.2095 21.0909 25.2536 20.608C26.3047 20.125 27.4588 19.8835 28.7159 19.8835C30.0653 19.8835 31.223 20.157 32.1889 20.7038C33.1548 21.2436 33.897 21.9574 34.4155 22.8452C34.9339 23.733 35.1932 24.6918 35.1932 25.7216C35.1932 26.9503 34.87 27.9979 34.2237 28.8643C33.5845 29.7308 32.7145 30.331 31.6136 30.6648V30.8352C32.9915 31.0625 34.0675 31.6484 34.8416 32.593C35.6158 33.5305 36.0028 34.6918 36.0028 36.0767C36.0028 37.2628 35.6797 38.3281 35.0334 39.2727C34.3942 40.2102 33.5206 40.9489 32.4126 41.4886C31.3047 42.0284 30.044 42.2983 28.6307 42.2983Z" fill="black" fill-opacity="0.86"/>
</svg>
