<svg width="60" height="60" viewBox="0 0 60 60" fill="none" xmlns="http://www.w3.org/2000/svg">
<circle cx="30" cy="30" r="30" fill="#F8F8F8" fill-opacity="0.9"/>
<path d="M28.0767 42.2983C26.8267 42.2983 25.701 42.0497 24.6996 41.5526C23.6982 41.0554 22.8956 40.3736 22.2919 39.5071C21.6882 38.6406 21.358 37.6534 21.3011 36.5455H23.858C23.9574 37.5327 24.4048 38.3494 25.2003 38.9957C26.0028 39.6349 26.9616 39.9545 28.0767 39.9545C28.9716 39.9545 29.767 39.745 30.4631 39.326C31.1662 38.907 31.7166 38.3317 32.1143 37.6001C32.5192 36.8615 32.7216 36.027 32.7216 35.0966C32.7216 34.1449 32.5121 33.2962 32.093 32.5504C31.6811 31.7976 31.1129 31.2045 30.3885 30.7713C29.6641 30.3381 28.8366 30.1179 27.9062 30.1108C27.2386 30.1037 26.5533 30.2067 25.8501 30.4197C25.147 30.6257 24.5682 30.892 24.1136 31.2188L21.642 30.9205L22.9631 20.1818H34.2983V22.5256H25.179L24.4119 28.9602H24.5398C24.9872 28.6051 25.5483 28.3104 26.223 28.076C26.8977 27.8416 27.6009 27.7244 28.3324 27.7244C29.6676 27.7244 30.8572 28.044 31.9013 28.6832C32.9524 29.3153 33.7763 30.1818 34.3729 31.2827C34.9766 32.3835 35.2784 33.6406 35.2784 35.054C35.2784 36.446 34.9659 37.6889 34.3409 38.7827C33.723 39.8693 32.8707 40.7287 31.7841 41.3608C30.6974 41.9858 29.4616 42.2983 28.0767 42.2983Z" fill="black" fill-opacity="0.86"/>
</svg>
