<svg width="60" height="60" viewBox="0 0 60 60" fill="none" xmlns="http://www.w3.org/2000/svg">
<circle cx="30" cy="30" r="30" fill="#F8F8F8" fill-opacity="0.9"/>
<path d="M28.5028 42.2983C27.608 42.2841 26.7131 42.1136 25.8182 41.7869C24.9233 41.4602 24.1065 40.9098 23.3679 40.1357C22.6293 39.3544 22.0362 38.2997 21.5888 36.9716C21.1413 35.6364 20.9176 33.9602 20.9176 31.9432C20.9176 30.0114 21.0987 28.2997 21.4609 26.8082C21.8232 25.3097 22.3487 24.049 23.0376 23.0263C23.7266 21.9964 24.5575 21.2152 25.5305 20.6825C26.5107 20.1499 27.6151 19.8835 28.8438 19.8835C30.0653 19.8835 31.152 20.1286 32.1037 20.6186C33.0625 21.1016 33.8438 21.7763 34.4474 22.6428C35.0511 23.5092 35.4418 24.5071 35.6193 25.6364H33.0199C32.7784 24.6562 32.3097 23.843 31.6136 23.1967C30.9176 22.5504 29.9943 22.2273 28.8438 22.2273C27.1534 22.2273 25.8217 22.9624 24.8487 24.4325C23.8828 25.9027 23.3963 27.9659 23.3892 30.6222H23.5597C23.9574 30.0185 24.4297 29.5036 24.9766 29.0774C25.5305 28.6442 26.1413 28.3104 26.8089 28.076C27.4766 27.8416 28.1832 27.7244 28.929 27.7244C30.179 27.7244 31.3224 28.0369 32.3594 28.6619C33.3963 29.2798 34.2273 30.1357 34.8523 31.2294C35.4773 32.3161 35.7898 33.5625 35.7898 34.9688C35.7898 36.3182 35.4879 37.554 34.8842 38.6761C34.2805 39.7912 33.4318 40.679 32.3381 41.3395C31.2514 41.9929 29.973 42.3125 28.5028 42.2983ZM28.5028 39.9545C29.3977 39.9545 30.2003 39.7308 30.9105 39.2834C31.6278 38.8359 32.1925 38.2358 32.6044 37.483C33.0234 36.7301 33.233 35.892 33.233 34.9688C33.233 34.0668 33.0305 33.2464 32.6257 32.5078C32.228 31.7621 31.6776 31.169 30.9744 30.7287C30.2784 30.2884 29.483 30.0682 28.5881 30.0682C27.9134 30.0682 27.2848 30.2031 26.7024 30.473C26.12 30.7358 25.6087 31.098 25.1683 31.5597C24.7351 32.0213 24.3942 32.5504 24.1456 33.147C23.897 33.7365 23.7727 34.358 23.7727 35.0114C23.7727 35.8778 23.9751 36.6875 24.38 37.4403C24.7919 38.1932 25.353 38.8004 26.0632 39.2621C26.7805 39.7237 27.5938 39.9545 28.5028 39.9545Z" fill="black" fill-opacity="0.86"/>
</svg>
