<svg width="60" height="60" viewBox="0 0 60 60" fill="none" xmlns="http://www.w3.org/2000/svg">
<circle cx="30" cy="30" r="30" fill="#0B0B0B"/>
<path d="M30.2472 38.2983C28.7841 38.2983 27.4915 38.0391 26.3693 37.5206C25.2543 36.995 24.3842 36.2741 23.7592 35.358C23.1342 34.4347 22.8253 33.3835 22.8324 32.2045C22.8253 31.2812 23.0064 30.429 23.3757 29.6477C23.745 28.8594 24.2493 28.2024 24.8885 27.6768C25.5348 27.1442 26.2557 26.8068 27.0511 26.6648V26.5369C26.0071 26.267 25.1761 25.6811 24.5582 24.7791C23.9403 23.87 23.6349 22.8366 23.642 21.679C23.6349 20.571 23.9155 19.5803 24.4837 18.7067C25.0518 17.8331 25.8331 17.1442 26.8274 16.6399C27.8288 16.1357 28.9688 15.8835 30.2472 15.8835C31.5114 15.8835 32.6406 16.1357 33.6349 16.6399C34.6293 17.1442 35.4105 17.8331 35.9787 18.7067C36.554 19.5803 36.8452 20.571 36.8523 21.679C36.8452 22.8366 36.5291 23.87 35.9041 24.7791C35.2862 25.6811 34.4659 26.267 33.4432 26.5369V26.6648C34.2315 26.8068 34.9418 27.1442 35.5739 27.6768C36.206 28.2024 36.7102 28.8594 37.0866 29.6477C37.4631 30.429 37.6548 31.2812 37.6619 32.2045C37.6548 33.3835 37.3352 34.4347 36.7031 35.358C36.0781 36.2741 35.2081 36.995 34.093 37.5206C32.9851 38.0391 31.7031 38.2983 30.2472 38.2983ZM30.2472 35.9545C31.2344 35.9545 32.0866 35.7947 32.804 35.4751C33.5213 35.1555 34.0753 34.7045 34.4659 34.1222C34.8565 33.5398 35.0554 32.858 35.0625 32.0767C35.0554 31.2528 34.8423 30.5249 34.4233 29.8928C34.0043 29.2607 33.4325 28.7635 32.7081 28.4013C31.9908 28.0391 31.1705 27.858 30.2472 27.858C29.3168 27.858 28.4858 28.0391 27.7543 28.4013C27.0298 28.7635 26.4581 29.2607 26.0391 29.8928C25.6271 30.5249 25.4247 31.2528 25.4318 32.0767C25.4247 32.858 25.6129 33.5398 25.9964 34.1222C26.3871 34.7045 26.9446 35.1555 27.669 35.4751C28.3935 35.7947 29.2528 35.9545 30.2472 35.9545ZM30.2472 25.5994C31.0284 25.5994 31.7209 25.4432 32.3246 25.1307C32.9354 24.8182 33.4148 24.3814 33.7628 23.8203C34.1108 23.2592 34.2884 22.6023 34.2955 21.8494C34.2884 21.1108 34.1143 20.468 33.7734 19.9212C33.4325 19.3672 32.9602 18.9411 32.3565 18.6428C31.7528 18.3374 31.0497 18.1847 30.2472 18.1847C29.4304 18.1847 28.7166 18.3374 28.1058 18.6428C27.495 18.9411 27.0227 19.3672 26.6889 19.9212C26.3551 20.468 26.1918 21.1108 26.1989 21.8494C26.1918 22.6023 26.3587 23.2592 26.6996 23.8203C27.0476 24.3814 27.527 24.8182 28.1378 25.1307C28.7486 25.4432 29.4517 25.5994 30.2472 25.5994Z" fill="white"/>
</svg>
