<svg width="60" height="60" viewBox="0 0 60 60" fill="none" xmlns="http://www.w3.org/2000/svg">
<circle cx="30" cy="30" r="30" fill="#F8F8F8" fill-opacity="0.9"/>
<path d="M28.2472 42.2983C26.7841 42.2983 25.4915 42.0391 24.3693 41.5206C23.2543 40.995 22.3842 40.2741 21.7592 39.358C21.1342 38.4347 20.8253 37.3835 20.8324 36.2045C20.8253 35.2812 21.0064 34.429 21.3757 33.6477C21.745 32.8594 22.2493 32.2024 22.8885 31.6768C23.5348 31.1442 24.2557 30.8068 25.0511 30.6648V30.5369C24.0071 30.267 23.1761 29.6811 22.5582 28.7791C21.9403 27.87 21.6349 26.8366 21.642 25.679C21.6349 24.571 21.9155 23.5803 22.4837 22.7067C23.0518 21.8331 23.8331 21.1442 24.8274 20.6399C25.8288 20.1357 26.9688 19.8835 28.2472 19.8835C29.5114 19.8835 30.6406 20.1357 31.6349 20.6399C32.6293 21.1442 33.4105 21.8331 33.9787 22.7067C34.554 23.5803 34.8452 24.571 34.8523 25.679C34.8452 26.8366 34.5291 27.87 33.9041 28.7791C33.2862 29.6811 32.4659 30.267 31.4432 30.5369V30.6648C32.2315 30.8068 32.9418 31.1442 33.5739 31.6768C34.206 32.2024 34.7102 32.8594 35.0866 33.6477C35.4631 34.429 35.6548 35.2812 35.6619 36.2045C35.6548 37.3835 35.3352 38.4347 34.7031 39.358C34.0781 40.2741 33.2081 40.995 32.093 41.5206C30.9851 42.0391 29.7031 42.2983 28.2472 42.2983ZM28.2472 39.9545C29.2344 39.9545 30.0866 39.7947 30.804 39.4751C31.5213 39.1555 32.0753 38.7045 32.4659 38.1222C32.8565 37.5398 33.0554 36.858 33.0625 36.0767C33.0554 35.2528 32.8423 34.5249 32.4233 33.8928C32.0043 33.2607 31.4325 32.7635 30.7081 32.4013C29.9908 32.0391 29.1705 31.858 28.2472 31.858C27.3168 31.858 26.4858 32.0391 25.7543 32.4013C25.0298 32.7635 24.4581 33.2607 24.0391 33.8928C23.6271 34.5249 23.4247 35.2528 23.4318 36.0767C23.4247 36.858 23.6129 37.5398 23.9964 38.1222C24.3871 38.7045 24.9446 39.1555 25.669 39.4751C26.3935 39.7947 27.2528 39.9545 28.2472 39.9545ZM28.2472 29.5994C29.0284 29.5994 29.7209 29.4432 30.3246 29.1307C30.9354 28.8182 31.4148 28.3814 31.7628 27.8203C32.1108 27.2592 32.2884 26.6023 32.2955 25.8494C32.2884 25.1108 32.1143 24.468 31.7734 23.9212C31.4325 23.3672 30.9602 22.9411 30.3565 22.6428C29.7528 22.3374 29.0497 22.1847 28.2472 22.1847C27.4304 22.1847 26.7166 22.3374 26.1058 22.6428C25.495 22.9411 25.0227 23.3672 24.6889 23.9212C24.3551 24.468 24.1918 25.1108 24.1989 25.8494C24.1918 26.6023 24.3587 27.2592 24.6996 27.8203C25.0476 28.3814 25.527 28.8182 26.1378 29.1307C26.7486 29.4432 27.4517 29.5994 28.2472 29.5994Z" fill="black" fill-opacity="0.86"/>
</svg>
