<svg width="60" height="60" viewBox="0 0 60 60" fill="none" xmlns="http://www.w3.org/2000/svg">
<circle cx="30" cy="30" r="30" fill="#0B0B0B"/>
<path d="M30.2045 18.8835C31.0994 18.8906 31.9943 19.0611 32.8892 19.3949C33.7841 19.7287 34.6009 20.2827 35.3395 21.0568C36.0781 21.8239 36.6712 22.8714 37.1186 24.1996C37.5661 25.5277 37.7898 27.1932 37.7898 29.196C37.7898 31.1349 37.6051 32.8572 37.2358 34.3629C36.8736 35.8615 36.348 37.1257 35.6591 38.1555C34.9773 39.1854 34.1463 39.9666 33.1662 40.4993C32.1932 41.032 31.0923 41.2983 29.8636 41.2983C28.642 41.2983 27.5518 41.0568 26.593 40.5739C25.6413 40.0838 24.8601 39.4055 24.2493 38.5391C23.6456 37.6655 23.2585 36.6534 23.0881 35.5028H25.6875C25.9219 36.5043 26.3871 37.3317 27.0831 37.9851C27.7862 38.6314 28.7131 38.9545 29.8636 38.9545C31.5469 38.9545 32.875 38.2195 33.848 36.7493C34.8281 35.2791 35.3182 33.2017 35.3182 30.517H35.1477C34.75 31.1136 34.2777 31.6286 33.7308 32.0618C33.1839 32.495 32.5767 32.8288 31.9091 33.0632C31.2415 33.2976 30.5313 33.4148 29.7784 33.4148C28.5284 33.4148 27.3814 33.1058 26.3374 32.4879C25.3004 31.8629 24.4695 31.0071 23.8445 29.9205C23.2266 28.8267 22.9176 27.5767 22.9176 26.1705C22.9176 24.8352 23.2159 23.6136 23.8125 22.5057C24.4162 21.3906 25.2614 20.5028 26.348 19.8423C27.4418 19.1818 28.7273 18.8622 30.2045 18.8835ZM30.2045 21.2273C29.3097 21.2273 28.5036 21.451 27.7862 21.8984C27.076 22.3388 26.5114 22.9354 26.0923 23.6882C25.6804 24.4339 25.4744 25.2614 25.4744 26.1705C25.4744 27.0795 25.6733 27.907 26.071 28.6527C26.4759 29.3913 27.0263 29.9808 27.7223 30.4212C28.4254 30.8544 29.2244 31.071 30.1193 31.071C30.794 31.071 31.4226 30.9396 32.005 30.6768C32.5874 30.407 33.0952 30.0412 33.5284 29.5795C33.9688 29.1108 34.3132 28.5817 34.5618 27.9922C34.8104 27.3956 34.9347 26.7741 34.9347 26.1278C34.9347 25.2756 34.7287 24.4766 34.3168 23.7308C33.9119 22.9851 33.3509 22.3814 32.6335 21.9197C31.9233 21.4581 31.1136 21.2273 30.2045 21.2273Z" fill="white"/>
</svg>
