<svg width="60" height="60" viewBox="0 0 60 60" fill="none" xmlns="http://www.w3.org/2000/svg">
<circle cx="30" cy="30" r="30" fill="#F8F8F8" fill-opacity="0.9"/>
<path d="M28.2045 19.8835C29.0994 19.8906 29.9943 20.0611 30.8892 20.3949C31.7841 20.7287 32.6009 21.2827 33.3395 22.0568C34.0781 22.8239 34.6712 23.8714 35.1186 25.1996C35.5661 26.5277 35.7898 28.1932 35.7898 30.196C35.7898 32.1349 35.6051 33.8572 35.2358 35.3629C34.8736 36.8615 34.348 38.1257 33.6591 39.1555C32.9773 40.1854 32.1463 40.9666 31.1662 41.4993C30.1932 42.032 29.0923 42.2983 27.8636 42.2983C26.642 42.2983 25.5518 42.0568 24.593 41.5739C23.6413 41.0838 22.8601 40.4055 22.2493 39.5391C21.6456 38.6655 21.2585 37.6534 21.0881 36.5028H23.6875C23.9219 37.5043 24.3871 38.3317 25.0831 38.9851C25.7862 39.6314 26.7131 39.9545 27.8636 39.9545C29.5469 39.9545 30.875 39.2195 31.848 37.7493C32.8281 36.2791 33.3182 34.2017 33.3182 31.517H33.1477C32.75 32.1136 32.2777 32.6286 31.7308 33.0618C31.1839 33.495 30.5767 33.8288 29.9091 34.0632C29.2415 34.2976 28.5313 34.4148 27.7784 34.4148C26.5284 34.4148 25.3814 34.1058 24.3374 33.4879C23.3004 32.8629 22.4695 32.0071 21.8445 30.9205C21.2266 29.8267 20.9176 28.5767 20.9176 27.1705C20.9176 25.8352 21.2159 24.6136 21.8125 23.5057C22.4162 22.3906 23.2614 21.5028 24.348 20.8423C25.4418 20.1818 26.7273 19.8622 28.2045 19.8835ZM28.2045 22.2273C27.3097 22.2273 26.5036 22.451 25.7862 22.8984C25.076 23.3388 24.5114 23.9354 24.0923 24.6882C23.6804 25.4339 23.4744 26.2614 23.4744 27.1705C23.4744 28.0795 23.6733 28.907 24.071 29.6527C24.4759 30.3913 25.0263 30.9808 25.7223 31.4212C26.4254 31.8544 27.2244 32.071 28.1193 32.071C28.794 32.071 29.4226 31.9396 30.005 31.6768C30.5874 31.407 31.0952 31.0412 31.5284 30.5795C31.9688 30.1108 32.3132 29.5817 32.5618 28.9922C32.8104 28.3956 32.9347 27.7741 32.9347 27.1278C32.9347 26.2756 32.7287 25.4766 32.3168 24.7308C31.9119 23.9851 31.3509 23.3814 30.6335 22.9197C29.9233 22.4581 29.1136 22.2273 28.2045 22.2273Z" fill="black" fill-opacity="0.86"/>
</svg>
