<svg width="176" height="65" viewBox="0 0 176 65" fill="none" xmlns="http://www.w3.org/2000/svg">
<rect width="176" height="65" rx="5" fill="white"/>
<path d="M7.40909 26V14.3636H11.4773C12.2879 14.3636 12.9564 14.5038 13.483 14.7841C14.0095 15.0606 14.4015 15.4337 14.6591 15.9034C14.9167 16.3693 15.0455 16.8864 15.0455 17.4545C15.0455 17.9545 14.9564 18.3674 14.7784 18.6932C14.6042 19.0189 14.3731 19.2765 14.0852 19.4659C13.8011 19.6553 13.4924 19.7955 13.1591 19.8864V20C13.5152 20.0227 13.8731 20.1477 14.233 20.375C14.5928 20.6023 14.8939 20.928 15.1364 21.3523C15.3788 21.7765 15.5 22.2955 15.5 22.9091C15.5 23.4924 15.3674 24.017 15.1023 24.483C14.8371 24.9489 14.4186 25.3182 13.8466 25.5909C13.2746 25.8636 12.5303 26 11.6136 26H7.40909ZM8.81818 24.75H11.6136C12.5341 24.75 13.1875 24.572 13.5739 24.2159C13.964 23.8561 14.1591 23.4205 14.1591 22.9091C14.1591 22.5152 14.0587 22.1515 13.858 21.8182C13.6572 21.4811 13.3712 21.2121 13 21.0114C12.6288 20.8068 12.1894 20.7045 11.6818 20.7045H8.81818V24.75ZM8.81818 19.4773H11.4318C11.8561 19.4773 12.2386 19.3939 12.5795 19.2273C12.9242 19.0606 13.197 18.8258 13.3977 18.5227C13.6023 18.2197 13.7045 17.8636 13.7045 17.4545C13.7045 16.9432 13.5265 16.5095 13.1705 16.1534C12.8144 15.7936 12.25 15.6136 11.4773 15.6136H8.81818V19.4773ZM17.6335 26V17.2727H18.929V18.5909H19.0199C19.179 18.1591 19.4669 17.8087 19.8835 17.5398C20.3002 17.2708 20.7699 17.1364 21.2926 17.1364C21.3911 17.1364 21.5142 17.1383 21.6619 17.142C21.8097 17.1458 21.9214 17.1515 21.9972 17.1591V18.5227C21.9517 18.5114 21.8475 18.4943 21.6847 18.4716C21.5256 18.4451 21.357 18.4318 21.179 18.4318C20.7547 18.4318 20.3759 18.5208 20.0426 18.6989C19.7131 18.8731 19.4517 19.1155 19.2585 19.4261C19.0691 19.733 18.9744 20.0833 18.9744 20.4773V26H17.6335ZM26.1548 26.2045C25.6018 26.2045 25.0999 26.1004 24.6491 25.892C24.1984 25.6799 23.8404 25.375 23.5753 24.9773C23.3101 24.5758 23.1776 24.0909 23.1776 23.5227C23.1776 23.0227 23.276 22.6174 23.473 22.3068C23.67 21.9924 23.9332 21.7462 24.2628 21.5682C24.5923 21.3902 24.956 21.2576 25.3537 21.1705C25.7552 21.0795 26.1586 21.0076 26.5639 20.9545C27.0942 20.8864 27.5241 20.8352 27.8537 20.8011C28.187 20.7633 28.4295 20.7008 28.581 20.6136C28.7363 20.5265 28.8139 20.375 28.8139 20.1591V20.1136C28.8139 19.553 28.6605 19.1174 28.3537 18.8068C28.0507 18.4962 27.5904 18.3409 26.973 18.3409C26.3329 18.3409 25.831 18.4811 25.4673 18.7614C25.1037 19.0417 24.848 19.3409 24.7003 19.6591L23.4276 19.2045C23.6548 18.6742 23.9579 18.2614 24.3366 17.9659C24.7192 17.6667 25.1359 17.4583 25.5866 17.3409C26.0412 17.2197 26.4882 17.1591 26.9276 17.1591C27.2079 17.1591 27.5298 17.1932 27.8935 17.2614C28.2609 17.3258 28.6151 17.4602 28.956 17.6648C29.3007 17.8693 29.5866 18.178 29.8139 18.5909C30.0412 19.0038 30.1548 19.5568 30.1548 20.25V26H28.8139V24.8182H28.7457C28.6548 25.0076 28.5033 25.2102 28.2912 25.4261C28.0791 25.642 27.7969 25.8258 27.4446 25.9773C27.0923 26.1288 26.6624 26.2045 26.1548 26.2045ZM26.3594 25C26.8897 25 27.3366 24.8958 27.7003 24.6875C28.0677 24.4792 28.3442 24.2102 28.5298 23.8807C28.7192 23.5511 28.8139 23.2045 28.8139 22.8409V21.6136C28.7571 21.6818 28.6321 21.7443 28.4389 21.8011C28.2495 21.8542 28.0298 21.9015 27.7798 21.9432C27.5336 21.9811 27.2931 22.0152 27.0582 22.0455C26.8272 22.072 26.6397 22.0947 26.4957 22.1136C26.1473 22.1591 25.8215 22.233 25.5185 22.3352C25.2192 22.4337 24.9768 22.5833 24.7912 22.7841C24.6094 22.9811 24.5185 23.25 24.5185 23.5909C24.5185 24.0568 24.6908 24.4091 25.0355 24.6477C25.384 24.8826 25.8253 25 26.3594 25ZM33.9432 20.75V26H32.6023V17.2727H33.8977V18.6364H34.0114C34.2159 18.1932 34.5265 17.8371 34.9432 17.5682C35.3598 17.2955 35.8977 17.1591 36.5568 17.1591C37.1477 17.1591 37.6648 17.2803 38.108 17.5227C38.5511 17.7614 38.8958 18.125 39.142 18.6136C39.3883 19.0985 39.5114 19.7121 39.5114 20.4545V26H38.1705V20.5455C38.1705 19.8598 37.9924 19.3258 37.6364 18.9432C37.2803 18.5568 36.7917 18.3636 36.1705 18.3636C35.7424 18.3636 35.3598 18.4564 35.0227 18.642C34.6894 18.8277 34.4261 19.0985 34.233 19.4545C34.0398 19.8106 33.9432 20.2424 33.9432 20.75ZM45.2571 26.1818C44.5298 26.1818 43.8878 25.9981 43.331 25.6307C42.7741 25.2595 42.3385 24.7367 42.0241 24.0625C41.7098 23.3845 41.5526 22.5833 41.5526 21.6591C41.5526 20.7424 41.7098 19.947 42.0241 19.2727C42.3385 18.5985 42.776 18.0777 43.3366 17.7102C43.8973 17.3428 44.545 17.1591 45.2798 17.1591C45.848 17.1591 46.2969 17.2538 46.6264 17.4432C46.9598 17.6288 47.2135 17.8409 47.3878 18.0795C47.5658 18.3144 47.7041 18.5076 47.8026 18.6591H47.9162V14.3636H49.2571V26H47.9616V24.6591H47.8026C47.7041 24.8182 47.5639 25.0189 47.3821 25.2614C47.2003 25.5 46.9408 25.714 46.6037 25.9034C46.2666 26.089 45.8177 26.1818 45.2571 26.1818ZM45.4389 24.9773C45.9768 24.9773 46.4313 24.8371 46.8026 24.5568C47.1738 24.2727 47.456 23.8807 47.6491 23.3807C47.8423 22.8769 47.9389 22.2955 47.9389 21.6364C47.9389 20.9848 47.8442 20.4148 47.6548 19.9261C47.4654 19.4337 47.1851 19.0511 46.8139 18.7784C46.4427 18.5019 45.9844 18.3636 45.4389 18.3636C44.8707 18.3636 44.3973 18.5095 44.0185 18.8011C43.6435 19.089 43.3613 19.4811 43.1719 19.9773C42.9863 20.4697 42.8935 21.0227 42.8935 21.6364C42.8935 22.2576 42.9882 22.822 43.1776 23.3295C43.3707 23.8333 43.6548 24.2348 44.0298 24.5341C44.4086 24.8295 44.8783 24.9773 45.4389 24.9773Z" fill="black"/>
<rect x="17" y="30" width="151" height="25" rx="5" fill="#FF2E00" fill-opacity="0.69"/>
</svg>
