<svg width="60" height="60" viewBox="0 0 60 60" fill="none" xmlns="http://www.w3.org/2000/svg">
<circle cx="30" cy="30" r="30" fill="#83CC26"/>
<path d="M39.1989 26H36.5568C36.4006 25.2401 36.1271 24.5724 35.7365 23.9972C35.353 23.4219 34.8842 22.9389 34.3303 22.5483C33.7834 22.1506 33.1761 21.8523 32.5085 21.6534C31.8409 21.4545 31.1449 21.3551 30.4205 21.3551C29.0994 21.3551 27.9027 21.6889 26.8303 22.3565C25.7649 23.0241 24.9162 24.0078 24.2841 25.3075C23.6591 26.6072 23.3466 28.2017 23.3466 30.0909C23.3466 31.9801 23.6591 33.5746 24.2841 34.8743C24.9162 36.174 25.7649 37.1577 26.8303 37.8253C27.9027 38.4929 29.0994 38.8267 30.4205 38.8267C31.1449 38.8267 31.8409 38.7273 32.5085 38.5284C33.1761 38.3295 33.7834 38.0348 34.3303 37.6442C34.8842 37.2464 35.353 36.7599 35.7365 36.1847C36.1271 35.6023 36.4006 34.9347 36.5568 34.1818H39.1989C39 35.2969 38.6378 36.2947 38.1122 37.1754C37.5866 38.0561 36.9332 38.8054 36.152 39.4233C35.3707 40.0341 34.4936 40.4993 33.5206 40.8189C32.5547 41.1385 31.5213 41.2983 30.4205 41.2983C28.5597 41.2983 26.9048 40.8438 25.456 39.9347C24.0071 39.0256 22.8672 37.733 22.0362 36.0568C21.2053 34.3807 20.7898 32.392 20.7898 30.0909C20.7898 27.7898 21.2053 25.8011 22.0362 24.125C22.8672 22.4489 24.0071 21.1562 25.456 20.2472C26.9048 19.3381 28.5597 18.8835 30.4205 18.8835C31.5213 18.8835 32.5547 19.0433 33.5206 19.3629C34.4936 19.6825 35.3707 20.1513 36.152 20.7692C36.9332 21.38 37.5866 22.1257 38.1122 23.0064C38.6378 23.88 39 24.8778 39.1989 26Z" fill="white"/>
</svg>
