<svg width="60" height="60" viewBox="0 0 60 60" fill="none" xmlns="http://www.w3.org/2000/svg">
<circle cx="30" cy="30" r="30" fill="#0B0B0B"/>
<path d="M28.4461 35.0303L33.0333 31.0607L37.6206 35.0303L38.8461 33.9697L34.259 30L38.8461 26.0303L37.6206 24.9697L33.0333 28.9394L28.4461 24.9697L27.2206 26.0303L31.8077 30L27.2206 33.9697L28.4461 35.0303Z" fill="#83CC26"/>
<path d="M41.7 21H26.6765C26.5 21.0003 26.3253 21.0315 26.1632 21.0919C26.001 21.1522 25.8546 21.2405 25.733 21.3512L17 29.3261V30.6739L25.733 38.6488C25.8546 38.7595 26.001 38.8478 26.1632 38.9081C26.3253 38.9685 26.5 38.9997 26.6765 39H41.7C42.0447 38.9997 42.3751 38.881 42.6188 38.6701C42.8625 38.4592 42.9996 38.1733 43 37.875V22.125C42.9996 21.8267 42.8625 21.5408 42.6188 21.3299C42.3751 21.119 42.0447 21.0003 41.7 21ZM41.2667 37.5H26.8629L18.7333 30.0761V29.9239L26.8629 22.5H41.2667V37.5Z" fill="#83CC26"/>
</svg>
