<svg width="176" height="65" viewBox="0 0 176 65" fill="none" xmlns="http://www.w3.org/2000/svg">
<rect width="176" height="65" rx="3" fill="white"/>
<path d="M16.7727 18H15.3636C15.2803 17.5947 15.1345 17.2386 14.9261 16.9318C14.7216 16.625 14.4716 16.3674 14.1761 16.1591C13.8845 15.947 13.5606 15.7879 13.2045 15.6818C12.8485 15.5758 12.4773 15.5227 12.0909 15.5227C11.3864 15.5227 10.7481 15.7008 10.1761 16.0568C9.60795 16.4129 9.1553 16.9375 8.81818 17.6307C8.48485 18.3239 8.31818 19.1742 8.31818 20.1818C8.31818 21.1894 8.48485 22.0398 8.81818 22.733C9.1553 23.4261 9.60795 23.9508 10.1761 24.3068C10.7481 24.6629 11.3864 24.8409 12.0909 24.8409C12.4773 24.8409 12.8485 24.7879 13.2045 24.6818C13.5606 24.5758 13.8845 24.4186 14.1761 24.2102C14.4716 23.9981 14.7216 23.7386 14.9261 23.4318C15.1345 23.1212 15.2803 22.7652 15.3636 22.3636H16.7727C16.6667 22.9583 16.4735 23.4905 16.1932 23.9602C15.9129 24.4299 15.5644 24.8295 15.1477 25.1591C14.7311 25.4848 14.2633 25.733 13.7443 25.9034C13.2292 26.0739 12.678 26.1591 12.0909 26.1591C11.0985 26.1591 10.2159 25.9167 9.44318 25.4318C8.67045 24.947 8.0625 24.2576 7.61932 23.3636C7.17614 22.4697 6.95455 21.4091 6.95455 20.1818C6.95455 18.9545 7.17614 17.8939 7.61932 17C8.0625 16.1061 8.67045 15.4167 9.44318 14.9318C10.2159 14.447 11.0985 14.2045 12.0909 14.2045C12.678 14.2045 13.2292 14.2898 13.7443 14.4602C14.2633 14.6307 14.7311 14.8807 15.1477 15.2102C15.5644 15.536 15.9129 15.9337 16.1932 16.4034C16.4735 16.8693 16.6667 17.4015 16.7727 18ZM22.4134 26.1818C21.6255 26.1818 20.9342 25.9943 20.3395 25.6193C19.7486 25.2443 19.2865 24.7197 18.9531 24.0455C18.6236 23.3712 18.4588 22.5833 18.4588 21.6818C18.4588 20.7727 18.6236 19.9792 18.9531 19.3011C19.2865 18.6231 19.7486 18.0966 20.3395 17.7216C20.9342 17.3466 21.6255 17.1591 22.4134 17.1591C23.2012 17.1591 23.8906 17.3466 24.4815 17.7216C25.0762 18.0966 25.5384 18.6231 25.8679 19.3011C26.2012 19.9792 26.3679 20.7727 26.3679 21.6818C26.3679 22.5833 26.2012 23.3712 25.8679 24.0455C25.5384 24.7197 25.0762 25.2443 24.4815 25.6193C23.8906 25.9943 23.2012 26.1818 22.4134 26.1818ZM22.4134 24.9773C23.0118 24.9773 23.5043 24.8239 23.8906 24.517C24.277 24.2102 24.563 23.8068 24.7486 23.3068C24.9342 22.8068 25.027 22.2652 25.027 21.6818C25.027 21.0985 24.9342 20.5549 24.7486 20.0511C24.563 19.5473 24.277 19.1402 23.8906 18.8295C23.5043 18.5189 23.0118 18.3636 22.4134 18.3636C21.8149 18.3636 21.3224 18.5189 20.9361 18.8295C20.5497 19.1402 20.2637 19.5473 20.0781 20.0511C19.8925 20.5549 19.7997 21.0985 19.7997 21.6818C19.7997 22.2652 19.8925 22.8068 20.0781 23.3068C20.2637 23.8068 20.5497 24.2102 20.9361 24.517C21.3224 24.8239 21.8149 24.9773 22.4134 24.9773ZM29.7557 14.3636V26H28.4148V14.3636H29.7557ZM35.7571 26.1818C34.9692 26.1818 34.2779 25.9943 33.6832 25.6193C33.0923 25.2443 32.6302 24.7197 32.2969 24.0455C31.9673 23.3712 31.8026 22.5833 31.8026 21.6818C31.8026 20.7727 31.9673 19.9792 32.2969 19.3011C32.6302 18.6231 33.0923 18.0966 33.6832 17.7216C34.2779 17.3466 34.9692 17.1591 35.7571 17.1591C36.545 17.1591 37.2344 17.3466 37.8253 17.7216C38.42 18.0966 38.8821 18.6231 39.2116 19.3011C39.545 19.9792 39.7116 20.7727 39.7116 21.6818C39.7116 22.5833 39.545 23.3712 39.2116 24.0455C38.8821 24.7197 38.42 25.2443 37.8253 25.6193C37.2344 25.9943 36.545 26.1818 35.7571 26.1818ZM35.7571 24.9773C36.3556 24.9773 36.848 24.8239 37.2344 24.517C37.6207 24.2102 37.9067 23.8068 38.0923 23.3068C38.2779 22.8068 38.3707 22.2652 38.3707 21.6818C38.3707 21.0985 38.2779 20.5549 38.0923 20.0511C37.9067 19.5473 37.6207 19.1402 37.2344 18.8295C36.848 18.5189 36.3556 18.3636 35.7571 18.3636C35.1586 18.3636 34.6662 18.5189 34.2798 18.8295C33.8935 19.1402 33.6075 19.5473 33.4219 20.0511C33.2363 20.5549 33.1435 21.0985 33.1435 21.6818C33.1435 22.2652 33.2363 22.8068 33.4219 23.3068C33.6075 23.8068 33.8935 24.2102 34.2798 24.517C34.6662 24.8239 35.1586 24.9773 35.7571 24.9773ZM41.7585 26V17.2727H43.054V18.5909H43.1449C43.304 18.1591 43.5919 17.8087 44.0085 17.5398C44.4252 17.2708 44.8949 17.1364 45.4176 17.1364C45.5161 17.1364 45.6392 17.1383 45.7869 17.142C45.9347 17.1458 46.0464 17.1515 46.1222 17.1591V18.5227C46.0767 18.5114 45.9725 18.4943 45.8097 18.4716C45.6506 18.4451 45.482 18.4318 45.304 18.4318C44.8797 18.4318 44.5009 18.5208 44.1676 18.6989C43.8381 18.8731 43.5767 19.1155 43.3835 19.4261C43.1941 19.733 43.0994 20.0833 43.0994 20.4773V26H41.7585Z" fill="black"/>
<rect x="16" y="30" width="151" height="25" rx="5" fill="#FF2E00" fill-opacity="0.69"/>
</svg>
