<svg width="60" height="60" viewBox="0 0 60 60" fill="none" xmlns="http://www.w3.org/2000/svg">
<circle cx="30" cy="30" r="30" fill="#F8F8F8" fill-opacity="0.9"/>
<path d="M27.0059 35.0303L31.4167 31.0606L35.8275 35.0303L37.0059 33.9697L32.5952 30L37.0059 26.0303L35.8275 24.9697L31.4167 28.9394L27.0059 24.9697L25.8275 26.0303L30.2382 30L25.8275 33.9697L27.0059 35.0303Z" fill="#0B0B0B"/>
<path d="M39.75 21H25.3044C25.1346 21.0003 24.9667 21.0315 24.8107 21.0919C24.6548 21.1522 24.5141 21.2405 24.3971 21.3512L16 29.3261V30.6739L24.3971 38.6488C24.5141 38.7595 24.6548 38.8478 24.8107 38.9081C24.9667 38.9685 25.1346 38.9997 25.3044 39H39.75C40.0814 38.9997 40.3991 38.881 40.6335 38.6701C40.8678 38.4592 40.9996 38.1733 41 37.875V22.125C40.9996 21.8267 40.8678 21.5408 40.6335 21.3299C40.3991 21.119 40.0814 21.0003 39.75 21ZM39.3333 37.5H25.4835L17.6667 30.0761V29.9239L25.4835 22.5H39.3333V37.5Z" fill="#0B0B0B"/>
</svg>
