<svg width="60" height="60" viewBox="0 0 60 60" fill="none" xmlns="http://www.w3.org/2000/svg">
<circle cx="30" cy="30" r="30" fill="#F8F8F8" fill-opacity="0.9"/>
<path d="M30.1335 34.1705C29.608 34.1705 29.157 33.9822 28.7805 33.6058C28.4041 33.2294 28.2159 32.7784 28.2159 32.2528C28.2159 31.7273 28.4041 31.2763 28.7805 30.8999C29.157 30.5234 29.608 30.3352 30.1335 30.3352C30.6591 30.3352 31.1101 30.5234 31.4865 30.8999C31.8629 31.2763 32.0511 31.7273 32.0511 32.2528C32.0511 32.6009 31.9624 32.9205 31.7848 33.2116C31.6143 33.5028 31.3835 33.7372 31.0923 33.9148C30.8082 34.0852 30.4886 34.1705 30.1335 34.1705Z" fill="black" fill-opacity="0.86"/>
</svg>
