<svg width="758" height="267" viewBox="0 0 758 267" fill="none" xmlns="http://www.w3.org/2000/svg">
<g clip-path="url(#clip0_13_58)">
<rect width="758" height="267" fill="white"/>
<rect width="379" height="267" fill="#53CBFF"/>
<rect x="379" width="379" height="267" fill="#53CBFF"/>
<path d="M0 156H53V211.5V267H0V156Z" fill="black"/>
<path d="M0 156H53V211.5V267H0V156Z" fill="black"/>
<path d="M0 156H53V211.5V267H0V156Z" fill="black"/>
<path d="M0 156H53V211.5V267H0V156Z" fill="black"/>
<path d="M0 156H53V211.5V267H0V156Z" fill="black"/>
<path d="M0 156H53V211.5V267H0V156Z" fill="black"/>
<path d="M0 156H53V211.5V267H0V156Z" fill="black"/>
<path d="M0 156H53V211.5V267H0V156Z" fill="black"/>
<path d="M0 156H53V211.5V267H0V156Z" fill="black"/>
<path d="M0 156H53V211.5V267H0V156Z" fill="black"/>
<path d="M0 156H53V211.5V267H0V156Z" fill="black"/>
<path d="M0 156H53V211.5V267H0V156Z" fill="black"/>
<path d="M0 156H53V211.5V267H0V156Z" fill="black"/>
<path d="M0 156H53V211.5V267H0V156Z" fill="black"/>
<path d="M0 156H53V211.5V267H0V156Z" fill="black"/>
<path d="M0 156H53V211.5V267H0V156Z" fill="black"/>
<path d="M0 156H53V211.5V267H0V156Z" fill="black"/>
<path d="M0 156H53V211.5V267H0V156Z" fill="black"/>
<path d="M0 156H53V211.5V267H0V156Z" fill="black"/>
<path d="M0 156H53V211.5V267H0V156Z" fill="black"/>
<path d="M0 156H53V211.5V267H0V156Z" fill="black"/>
<path d="M0 156H53V211.5V267H0V156Z" fill="black"/>
<path d="M0 156H53V211.5V267H0V156Z" fill="black"/>
<path d="M0 156H53V211.5V267H0V156Z" fill="black"/>
<path d="M0 156H53V267H0V156Z" fill="black"/>
<path d="M0 156H53V267H0V156Z" fill="black"/>
<path d="M0 156H53V267H0V156Z" fill="black"/>
<path d="M138 95H191V181V267H138V95Z" fill="black"/>
<path d="M138 95H191V181V267H138V95Z" fill="black"/>
<path d="M138 95H191V181V267H138V95Z" fill="black"/>
<path d="M138 95H191V181V267H138V95Z" fill="black"/>
<path d="M138 95H191V181V267H138V95Z" fill="black"/>
<path d="M138 95H191V181V267H138V95Z" fill="black"/>
<path d="M138 95H191V181V267H138V95Z" fill="black"/>
<path d="M138 95H191V181V267H138V95Z" fill="black"/>
<path d="M138 95H191V181V267H138V95Z" fill="black"/>
<path d="M138 95H191V181V267H138V95Z" fill="black"/>
<path d="M138 95H191V181V267H138V95Z" fill="black"/>
<path d="M138 95H191V181V267H138V95Z" fill="black"/>
<path d="M138 95H191V181V267H138V95Z" fill="black"/>
<path d="M138 95H191V181V267H138V95Z" fill="black"/>
<path d="M138 95H191V181V267H138V95Z" fill="black"/>
<path d="M138 95H191V181V267H138V95Z" fill="black"/>
<path d="M138 95H191V181V267H138V95Z" fill="black"/>
<path d="M138 95H191V181V267H138V95Z" fill="black"/>
<path d="M138 95H191V181V267H138V95Z" fill="black"/>
<path d="M138 95H191V181V267H138V95Z" fill="black"/>
<path d="M138 95H191V181V267H138V95Z" fill="black"/>
<path d="M138 95H191V181V267H138V95Z" fill="black"/>
<path d="M138 95H191V181V267H138V95Z" fill="black"/>
<path d="M138 95H191V181V267H138V95Z" fill="black"/>
<path d="M138 95H191V267H138V95Z" fill="black"/>
<path d="M138 95H191V267H138V95Z" fill="black"/>
<path d="M138 95H191V267H138V95Z" fill="black"/>
<path d="M86 171H139V219V267H86V171Z" fill="black"/>
<path d="M86 171H139V219V267H86V171Z" fill="black"/>
<path d="M86 171H139V219V267H86V171Z" fill="black"/>
<path d="M86 171H139V219V267H86V171Z" fill="black"/>
<path d="M86 171H139V219V267H86V171Z" fill="black"/>
<path d="M86 171H139V219V267H86V171Z" fill="black"/>
<path d="M86 171H139V219V267H86V171Z" fill="black"/>
<path d="M86 171H139V219V267H86V171Z" fill="black"/>
<path d="M86 171H139V219V267H86V171Z" fill="black"/>
<path d="M86 171H139V219V267H86V171Z" fill="black"/>
<path d="M86 171H139V219V267H86V171Z" fill="black"/>
<path d="M86 171H139V219V267H86V171Z" fill="black"/>
<path d="M86 171H139V219V267H86V171Z" fill="black"/>
<path d="M86 171H139V219V267H86V171Z" fill="black"/>
<path d="M86 171H139V219V267H86V171Z" fill="black"/>
<path d="M86 171H139V219V267H86V171Z" fill="black"/>
<path d="M86 171H139V219V267H86V171Z" fill="black"/>
<path d="M86 171H139V219V267H86V171Z" fill="black"/>
<path d="M86 171H139V219V267H86V171Z" fill="black"/>
<path d="M86 171H139V219V267H86V171Z" fill="black"/>
<path d="M86 171H139V219V267H86V171Z" fill="black"/>
<path d="M86 171H139V219V267H86V171Z" fill="black"/>
<path d="M86 171H139V219V267H86V171Z" fill="black"/>
<path d="M86 171H139V219V267H86V171Z" fill="black"/>
<path d="M86 171H139V267H86V171Z" fill="black"/>
<path d="M86 171H139V267H86V171Z" fill="black"/>
<path d="M86 171H139V267H86V171Z" fill="black"/>
<path d="M44 103H97V185V267H44V103Z" fill="black"/>
<path d="M44 103H97V185V267H44V103Z" fill="black"/>
<path d="M44 103H97V185V267H44V103Z" fill="black"/>
<path d="M44 103H97V185V267H44V103Z" fill="black"/>
<path d="M44 103H97V185V267H44V103Z" fill="black"/>
<path d="M44 103H97V185V267H44V103Z" fill="black"/>
<path d="M44 103H97V185V267H44V103Z" fill="black"/>
<path d="M44 103H97V185V267H44V103Z" fill="black"/>
<path d="M44 103H97V185V267H44V103Z" fill="black"/>
<path d="M44 103H97V185V267H44V103Z" fill="black"/>
<path d="M44 103H97V185V267H44V103Z" fill="black"/>
<path d="M44 103H97V185V267H44V103Z" fill="black"/>
<path d="M44 103H97V185V267H44V103Z" fill="black"/>
<path d="M44 103H97V185V267H44V103Z" fill="black"/>
<path d="M44 103H97V185V267H44V103Z" fill="black"/>
<path d="M44 103H97V185V267H44V103Z" fill="black"/>
<path d="M44 103H97V185V267H44V103Z" fill="black"/>
<path d="M44 103H97V185V267H44V103Z" fill="black"/>
<path d="M44 103H97V185V267H44V103Z" fill="black"/>
<path d="M44 103H97V185V267H44V103Z" fill="black"/>
<path d="M44 103H97V185V267H44V103Z" fill="black"/>
<path d="M44 103H97V185V267H44V103Z" fill="black"/>
<path d="M44 103H97V185V267H44V103Z" fill="black"/>
<path d="M44 103H97V185V267H44V103Z" fill="black"/>
<path d="M44 103H97V267H44V103Z" fill="black"/>
<path d="M44 103H97V267H44V103Z" fill="black"/>
<path d="M44 103H97V267H44V103Z" fill="black"/>
<path d="M190 133H243V200V267H190V133Z" fill="black"/>
<path d="M190 133H243V200V267H190V133Z" fill="black"/>
<path d="M190 133H243V200V267H190V133Z" fill="black"/>
<path d="M190 133H243V200V267H190V133Z" fill="black"/>
<path d="M190 133H243V200V267H190V133Z" fill="black"/>
<path d="M190 133H243V200V267H190V133Z" fill="black"/>
<path d="M190 133H243V200V267H190V133Z" fill="black"/>
<path d="M190 133H243V200V267H190V133Z" fill="black"/>
<path d="M190 133H243V200V267H190V133Z" fill="black"/>
<path d="M190 133H243V200V267H190V133Z" fill="black"/>
<path d="M190 133H243V200V267H190V133Z" fill="black"/>
<path d="M190 133H243V200V267H190V133Z" fill="black"/>
<path d="M190 133H243V200V267H190V133Z" fill="black"/>
<path d="M190 133H243V200V267H190V133Z" fill="black"/>
<path d="M190 133H243V200V267H190V133Z" fill="black"/>
<path d="M190 133H243V200V267H190V133Z" fill="black"/>
<path d="M190 133H243V200V267H190V133Z" fill="black"/>
<path d="M190 133H243V200V267H190V133Z" fill="black"/>
<path d="M190 133H243V200V267H190V133Z" fill="black"/>
<path d="M190 133H243V200V267H190V133Z" fill="black"/>
<path d="M190 133H243V200V267H190V133Z" fill="black"/>
<path d="M190 133H243V200V267H190V133Z" fill="black"/>
<path d="M190 133H243V200V267H190V133Z" fill="black"/>
<path d="M190 133H243V200V267H190V133Z" fill="black"/>
<path d="M190 133H243V267H190V133Z" fill="black"/>
<path d="M190 133H243V267H190V133Z" fill="black"/>
<path d="M190 133H243V267H190V133Z" fill="black"/>
<path d="M242 156H275V211.5V267H242V156Z" fill="black"/>
<path d="M242 156H275V211.5V267H242V156Z" fill="black"/>
<path d="M242 156H275V211.5V267H242V156Z" fill="black"/>
<path d="M242 156H275V211.5V267H242V156Z" fill="black"/>
<path d="M242 156H275V211.5V267H242V156Z" fill="black"/>
<path d="M242 156H275V211.5V267H242V156Z" fill="black"/>
<path d="M242 156H275V211.5V267H242V156Z" fill="black"/>
<path d="M242 156H275V211.5V267H242V156Z" fill="black"/>
<path d="M242 156H275V211.5V267H242V156Z" fill="black"/>
<path d="M242 156H275V211.5V267H242V156Z" fill="black"/>
<path d="M242 156H275V211.5V267H242V156Z" fill="black"/>
<path d="M242 156H275V211.5V267H242V156Z" fill="black"/>
<path d="M242 156H275V211.5V267H242V156Z" fill="black"/>
<path d="M242 156H275V211.5V267H242V156Z" fill="black"/>
<path d="M242 156H275V211.5V267H242V156Z" fill="black"/>
<path d="M242 156H275V211.5V267H242V156Z" fill="black"/>
<path d="M242 156H275V211.5V267H242V156Z" fill="black"/>
<path d="M242 156H275V211.5V267H242V156Z" fill="black"/>
<path d="M242 156H275V211.5V267H242V156Z" fill="black"/>
<path d="M242 156H275V211.5V267H242V156Z" fill="black"/>
<path d="M242 156H275V211.5V267H242V156Z" fill="black"/>
<path d="M242 156H275V211.5V267H242V156Z" fill="black"/>
<path d="M242 156H275V211.5V267H242V156Z" fill="black"/>
<path d="M242 156H275V211.5V267H242V156Z" fill="black"/>
<path d="M242 156H275V267H242V156Z" fill="black"/>
<path d="M242 156H275V267H242V156Z" fill="black"/>
<path d="M242 156H275V267H242V156Z" fill="black"/>
<path d="M273 133H326V200V267H273V133Z" fill="black"/>
<path d="M273 133H326V200V267H273V133Z" fill="black"/>
<path d="M273 133H326V200V267H273V133Z" fill="black"/>
<path d="M273 133H326V200V267H273V133Z" fill="black"/>
<path d="M273 133H326V200V267H273V133Z" fill="black"/>
<path d="M273 133H326V200V267H273V133Z" fill="black"/>
<path d="M273 133H326V200V267H273V133Z" fill="black"/>
<path d="M273 133H326V200V267H273V133Z" fill="black"/>
<path d="M273 133H326V200V267H273V133Z" fill="black"/>
<path d="M273 133H326V200V267H273V133Z" fill="black"/>
<path d="M273 133H326V200V267H273V133Z" fill="black"/>
<path d="M273 133H326V200V267H273V133Z" fill="black"/>
<path d="M273 133H326V200V267H273V133Z" fill="black"/>
<path d="M273 133H326V200V267H273V133Z" fill="black"/>
<path d="M273 133H326V200V267H273V133Z" fill="black"/>
<path d="M273 133H326V200V267H273V133Z" fill="black"/>
<path d="M273 133H326V200V267H273V133Z" fill="black"/>
<path d="M273 133H326V200V267H273V133Z" fill="black"/>
<path d="M273 133H326V200V267H273V133Z" fill="black"/>
<path d="M273 133H326V200V267H273V133Z" fill="black"/>
<path d="M273 133H326V200V267H273V133Z" fill="black"/>
<path d="M273 133H326V200V267H273V133Z" fill="black"/>
<path d="M273 133H326V200V267H273V133Z" fill="black"/>
<path d="M273 133H326V200V267H273V133Z" fill="black"/>
<path d="M273 133H326V267H273V133Z" fill="black"/>
<path d="M273 133H326V267H273V133Z" fill="black"/>
<path d="M273 133H326V267H273V133Z" fill="black"/>
<path d="M326 156H379V211.5V267H326V156Z" fill="black"/>
<path d="M326 156H379V211.5V267H326V156Z" fill="black"/>
<path d="M326 156H379V211.5V267H326V156Z" fill="black"/>
<path d="M326 156H379V211.5V267H326V156Z" fill="black"/>
<path d="M326 156H379V211.5V267H326V156Z" fill="black"/>
<path d="M326 156H379V211.5V267H326V156Z" fill="black"/>
<path d="M326 156H379V211.5V267H326V156Z" fill="black"/>
<path d="M326 156H379V211.5V267H326V156Z" fill="black"/>
<path d="M326 156H379V211.5V267H326V156Z" fill="black"/>
<path d="M326 156H379V211.5V267H326V156Z" fill="black"/>
<path d="M326 156H379V211.5V267H326V156Z" fill="black"/>
<path d="M326 156H379V211.5V267H326V156Z" fill="black"/>
<path d="M326 156H379V211.5V267H326V156Z" fill="black"/>
<path d="M326 156H379V211.5V267H326V156Z" fill="black"/>
<path d="M326 156H379V211.5V267H326V156Z" fill="black"/>
<path d="M326 156H379V211.5V267H326V156Z" fill="black"/>
<path d="M326 156H379V211.5V267H326V156Z" fill="black"/>
<path d="M326 156H379V211.5V267H326V156Z" fill="black"/>
<path d="M326 156H379V211.5V267H326V156Z" fill="black"/>
<path d="M326 156H379V211.5V267H326V156Z" fill="black"/>
<path d="M326 156H379V211.5V267H326V156Z" fill="black"/>
<path d="M326 156H379V211.5V267H326V156Z" fill="black"/>
<path d="M326 156H379V211.5V267H326V156Z" fill="black"/>
<path d="M326 156H379V211.5V267H326V156Z" fill="black"/>
<path d="M326 156H379V267H326V156Z" fill="black"/>
<path d="M326 156H379V267H326V156Z" fill="black"/>
<path d="M326 156H379V267H326V156Z" fill="black"/>
<path d="M379 156H432V211.5V267H379V156Z" fill="black"/>
<path d="M379 156H432V211.5V267H379V156Z" fill="black"/>
<path d="M379 156H432V211.5V267H379V156Z" fill="black"/>
<path d="M379 156H432V211.5V267H379V156Z" fill="black"/>
<path d="M379 156H432V211.5V267H379V156Z" fill="black"/>
<path d="M379 156H432V211.5V267H379V156Z" fill="black"/>
<path d="M379 156H432V211.5V267H379V156Z" fill="black"/>
<path d="M379 156H432V211.5V267H379V156Z" fill="black"/>
<path d="M379 156H432V211.5V267H379V156Z" fill="black"/>
<path d="M379 156H432V211.5V267H379V156Z" fill="black"/>
<path d="M379 156H432V211.5V267H379V156Z" fill="black"/>
<path d="M379 156H432V211.5V267H379V156Z" fill="black"/>
<path d="M379 156H432V211.5V267H379V156Z" fill="black"/>
<path d="M379 156H432V211.5V267H379V156Z" fill="black"/>
<path d="M379 156H432V211.5V267H379V156Z" fill="black"/>
<path d="M379 156H432V211.5V267H379V156Z" fill="black"/>
<path d="M379 156H432V211.5V267H379V156Z" fill="black"/>
<path d="M379 156H432V211.5V267H379V156Z" fill="black"/>
<path d="M379 156H432V211.5V267H379V156Z" fill="black"/>
<path d="M379 156H432V211.5V267H379V156Z" fill="black"/>
<path d="M379 156H432V211.5V267H379V156Z" fill="black"/>
<path d="M379 156H432V211.5V267H379V156Z" fill="black"/>
<path d="M379 156H432V211.5V267H379V156Z" fill="black"/>
<path d="M379 156H432V211.5V267H379V156Z" fill="black"/>
<path d="M379 156H432V267H379V156Z" fill="black"/>
<path d="M379 156H432V267H379V156Z" fill="black"/>
<path d="M379 156H432V267H379V156Z" fill="black"/>
<path d="M517 95H570V181V267H517V95Z" fill="black"/>
<path d="M517 95H570V181V267H517V95Z" fill="black"/>
<path d="M517 95H570V181V267H517V95Z" fill="black"/>
<path d="M517 95H570V181V267H517V95Z" fill="black"/>
<path d="M517 95H570V181V267H517V95Z" fill="black"/>
<path d="M517 95H570V181V267H517V95Z" fill="black"/>
<path d="M517 95H570V181V267H517V95Z" fill="black"/>
<path d="M517 95H570V181V267H517V95Z" fill="black"/>
<path d="M517 95H570V181V267H517V95Z" fill="black"/>
<path d="M517 95H570V181V267H517V95Z" fill="black"/>
<path d="M517 95H570V181V267H517V95Z" fill="black"/>
<path d="M517 95H570V181V267H517V95Z" fill="black"/>
<path d="M517 95H570V181V267H517V95Z" fill="black"/>
<path d="M517 95H570V181V267H517V95Z" fill="black"/>
<path d="M517 95H570V181V267H517V95Z" fill="black"/>
<path d="M517 95H570V181V267H517V95Z" fill="black"/>
<path d="M517 95H570V181V267H517V95Z" fill="black"/>
<path d="M517 95H570V181V267H517V95Z" fill="black"/>
<path d="M517 95H570V181V267H517V95Z" fill="black"/>
<path d="M517 95H570V181V267H517V95Z" fill="black"/>
<path d="M517 95H570V181V267H517V95Z" fill="black"/>
<path d="M517 95H570V181V267H517V95Z" fill="black"/>
<path d="M517 95H570V181V267H517V95Z" fill="black"/>
<path d="M517 95H570V181V267H517V95Z" fill="black"/>
<path d="M517 95H570V267H517V95Z" fill="black"/>
<path d="M517 95H570V267H517V95Z" fill="black"/>
<path d="M517 95H570V267H517V95Z" fill="black"/>
<path d="M465 171H518V219V267H465V171Z" fill="black"/>
<path d="M465 171H518V219V267H465V171Z" fill="black"/>
<path d="M465 171H518V219V267H465V171Z" fill="black"/>
<path d="M465 171H518V219V267H465V171Z" fill="black"/>
<path d="M465 171H518V219V267H465V171Z" fill="black"/>
<path d="M465 171H518V219V267H465V171Z" fill="black"/>
<path d="M465 171H518V219V267H465V171Z" fill="black"/>
<path d="M465 171H518V219V267H465V171Z" fill="black"/>
<path d="M465 171H518V219V267H465V171Z" fill="black"/>
<path d="M465 171H518V219V267H465V171Z" fill="black"/>
<path d="M465 171H518V219V267H465V171Z" fill="black"/>
<path d="M465 171H518V219V267H465V171Z" fill="black"/>
<path d="M465 171H518V219V267H465V171Z" fill="black"/>
<path d="M465 171H518V219V267H465V171Z" fill="black"/>
<path d="M465 171H518V219V267H465V171Z" fill="black"/>
<path d="M465 171H518V219V267H465V171Z" fill="black"/>
<path d="M465 171H518V219V267H465V171Z" fill="black"/>
<path d="M465 171H518V219V267H465V171Z" fill="black"/>
<path d="M465 171H518V219V267H465V171Z" fill="black"/>
<path d="M465 171H518V219V267H465V171Z" fill="black"/>
<path d="M465 171H518V219V267H465V171Z" fill="black"/>
<path d="M465 171H518V219V267H465V171Z" fill="black"/>
<path d="M465 171H518V219V267H465V171Z" fill="black"/>
<path d="M465 171H518V219V267H465V171Z" fill="black"/>
<path d="M465 171H518V267H465V171Z" fill="black"/>
<path d="M465 171H518V267H465V171Z" fill="black"/>
<path d="M465 171H518V267H465V171Z" fill="black"/>
<path d="M423 103H476V185V267H423V103Z" fill="black"/>
<path d="M423 103H476V185V267H423V103Z" fill="black"/>
<path d="M423 103H476V185V267H423V103Z" fill="black"/>
<path d="M423 103H476V185V267H423V103Z" fill="black"/>
<path d="M423 103H476V185V267H423V103Z" fill="black"/>
<path d="M423 103H476V185V267H423V103Z" fill="black"/>
<path d="M423 103H476V185V267H423V103Z" fill="black"/>
<path d="M423 103H476V185V267H423V103Z" fill="black"/>
<path d="M423 103H476V185V267H423V103Z" fill="black"/>
<path d="M423 103H476V185V267H423V103Z" fill="black"/>
<path d="M423 103H476V185V267H423V103Z" fill="black"/>
<path d="M423 103H476V185V267H423V103Z" fill="black"/>
<path d="M423 103H476V185V267H423V103Z" fill="black"/>
<path d="M423 103H476V185V267H423V103Z" fill="black"/>
<path d="M423 103H476V185V267H423V103Z" fill="black"/>
<path d="M423 103H476V185V267H423V103Z" fill="black"/>
<path d="M423 103H476V185V267H423V103Z" fill="black"/>
<path d="M423 103H476V185V267H423V103Z" fill="black"/>
<path d="M423 103H476V185V267H423V103Z" fill="black"/>
<path d="M423 103H476V185V267H423V103Z" fill="black"/>
<path d="M423 103H476V185V267H423V103Z" fill="black"/>
<path d="M423 103H476V185V267H423V103Z" fill="black"/>
<path d="M423 103H476V185V267H423V103Z" fill="black"/>
<path d="M423 103H476V185V267H423V103Z" fill="black"/>
<path d="M423 103H476V267H423V103Z" fill="black"/>
<path d="M423 103H476V267H423V103Z" fill="black"/>
<path d="M423 103H476V267H423V103Z" fill="black"/>
<path d="M569 133H622V200V267H569V133Z" fill="black"/>
<path d="M569 133H622V200V267H569V133Z" fill="black"/>
<path d="M569 133H622V200V267H569V133Z" fill="black"/>
<path d="M569 133H622V200V267H569V133Z" fill="black"/>
<path d="M569 133H622V200V267H569V133Z" fill="black"/>
<path d="M569 133H622V200V267H569V133Z" fill="black"/>
<path d="M569 133H622V200V267H569V133Z" fill="black"/>
<path d="M569 133H622V200V267H569V133Z" fill="black"/>
<path d="M569 133H622V200V267H569V133Z" fill="black"/>
<path d="M569 133H622V200V267H569V133Z" fill="black"/>
<path d="M569 133H622V200V267H569V133Z" fill="black"/>
<path d="M569 133H622V200V267H569V133Z" fill="black"/>
<path d="M569 133H622V200V267H569V133Z" fill="black"/>
<path d="M569 133H622V200V267H569V133Z" fill="black"/>
<path d="M569 133H622V200V267H569V133Z" fill="black"/>
<path d="M569 133H622V200V267H569V133Z" fill="black"/>
<path d="M569 133H622V200V267H569V133Z" fill="black"/>
<path d="M569 133H622V200V267H569V133Z" fill="black"/>
<path d="M569 133H622V200V267H569V133Z" fill="black"/>
<path d="M569 133H622V200V267H569V133Z" fill="black"/>
<path d="M569 133H622V200V267H569V133Z" fill="black"/>
<path d="M569 133H622V200V267H569V133Z" fill="black"/>
<path d="M569 133H622V200V267H569V133Z" fill="black"/>
<path d="M569 133H622V200V267H569V133Z" fill="black"/>
<path d="M569 133H622V267H569V133Z" fill="black"/>
<path d="M569 133H622V267H569V133Z" fill="black"/>
<path d="M569 133H622V267H569V133Z" fill="black"/>
<path d="M621 156H654V211.5V267H621V156Z" fill="black"/>
<path d="M621 156H654V211.5V267H621V156Z" fill="black"/>
<path d="M621 156H654V211.5V267H621V156Z" fill="black"/>
<path d="M621 156H654V211.5V267H621V156Z" fill="black"/>
<path d="M621 156H654V211.5V267H621V156Z" fill="black"/>
<path d="M621 156H654V211.5V267H621V156Z" fill="black"/>
<path d="M621 156H654V211.5V267H621V156Z" fill="black"/>
<path d="M621 156H654V211.5V267H621V156Z" fill="black"/>
<path d="M621 156H654V211.5V267H621V156Z" fill="black"/>
<path d="M621 156H654V211.5V267H621V156Z" fill="black"/>
<path d="M621 156H654V211.5V267H621V156Z" fill="black"/>
<path d="M621 156H654V211.5V267H621V156Z" fill="black"/>
<path d="M621 156H654V211.5V267H621V156Z" fill="black"/>
<path d="M621 156H654V211.5V267H621V156Z" fill="black"/>
<path d="M621 156H654V211.5V267H621V156Z" fill="black"/>
<path d="M621 156H654V211.5V267H621V156Z" fill="black"/>
<path d="M621 156H654V211.5V267H621V156Z" fill="black"/>
<path d="M621 156H654V211.5V267H621V156Z" fill="black"/>
<path d="M621 156H654V211.5V267H621V156Z" fill="black"/>
<path d="M621 156H654V211.5V267H621V156Z" fill="black"/>
<path d="M621 156H654V211.5V267H621V156Z" fill="black"/>
<path d="M621 156H654V211.5V267H621V156Z" fill="black"/>
<path d="M621 156H654V211.5V267H621V156Z" fill="black"/>
<path d="M621 156H654V211.5V267H621V156Z" fill="black"/>
<path d="M621 156H654V267H621V156Z" fill="black"/>
<path d="M621 156H654V267H621V156Z" fill="black"/>
<path d="M621 156H654V267H621V156Z" fill="black"/>
<path d="M652 133H705V200V267H652V133Z" fill="black"/>
<path d="M652 133H705V200V267H652V133Z" fill="black"/>
<path d="M652 133H705V200V267H652V133Z" fill="black"/>
<path d="M652 133H705V200V267H652V133Z" fill="black"/>
<path d="M652 133H705V200V267H652V133Z" fill="black"/>
<path d="M652 133H705V200V267H652V133Z" fill="black"/>
<path d="M652 133H705V200V267H652V133Z" fill="black"/>
<path d="M652 133H705V200V267H652V133Z" fill="black"/>
<path d="M652 133H705V200V267H652V133Z" fill="black"/>
<path d="M652 133H705V200V267H652V133Z" fill="black"/>
<path d="M652 133H705V200V267H652V133Z" fill="black"/>
<path d="M652 133H705V200V267H652V133Z" fill="black"/>
<path d="M652 133H705V200V267H652V133Z" fill="black"/>
<path d="M652 133H705V200V267H652V133Z" fill="black"/>
<path d="M652 133H705V200V267H652V133Z" fill="black"/>
<path d="M652 133H705V200V267H652V133Z" fill="black"/>
<path d="M652 133H705V200V267H652V133Z" fill="black"/>
<path d="M652 133H705V200V267H652V133Z" fill="black"/>
<path d="M652 133H705V200V267H652V133Z" fill="black"/>
<path d="M652 133H705V200V267H652V133Z" fill="black"/>
<path d="M652 133H705V200V267H652V133Z" fill="black"/>
<path d="M652 133H705V200V267H652V133Z" fill="black"/>
<path d="M652 133H705V200V267H652V133Z" fill="black"/>
<path d="M652 133H705V200V267H652V133Z" fill="black"/>
<path d="M652 133H705V267H652V133Z" fill="black"/>
<path d="M652 133H705V267H652V133Z" fill="black"/>
<path d="M652 133H705V267H652V133Z" fill="black"/>
<path d="M705 156H758V211.5V267H705V156Z" fill="black"/>
<path d="M705 156H758V211.5V267H705V156Z" fill="black"/>
<path d="M705 156H758V211.5V267H705V156Z" fill="black"/>
<path d="M705 156H758V211.5V267H705V156Z" fill="black"/>
<path d="M705 156H758V211.5V267H705V156Z" fill="black"/>
<path d="M705 156H758V211.5V267H705V156Z" fill="black"/>
<path d="M705 156H758V211.5V267H705V156Z" fill="black"/>
<path d="M705 156H758V211.5V267H705V156Z" fill="black"/>
<path d="M705 156H758V211.5V267H705V156Z" fill="black"/>
<path d="M705 156H758V211.5V267H705V156Z" fill="black"/>
<path d="M705 156H758V211.5V267H705V156Z" fill="black"/>
<path d="M705 156H758V211.5V267H705V156Z" fill="black"/>
<path d="M705 156H758V211.5V267H705V156Z" fill="black"/>
<path d="M705 156H758V211.5V267H705V156Z" fill="black"/>
<path d="M705 156H758V211.5V267H705V156Z" fill="black"/>
<path d="M705 156H758V211.5V267H705V156Z" fill="black"/>
<path d="M705 156H758V211.5V267H705V156Z" fill="black"/>
<path d="M705 156H758V211.5V267H705V156Z" fill="black"/>
<path d="M705 156H758V211.5V267H705V156Z" fill="black"/>
<path d="M705 156H758V211.5V267H705V156Z" fill="black"/>
<path d="M705 156H758V211.5V267H705V156Z" fill="black"/>
<path d="M705 156H758V211.5V267H705V156Z" fill="black"/>
<path d="M705 156H758V211.5V267H705V156Z" fill="black"/>
<path d="M705 156H758V211.5V267H705V156Z" fill="black"/>
<path d="M705 156H758V267H705V156Z" fill="black"/>
<path d="M705 156H758V267H705V156Z" fill="black"/>
<path d="M705 156H758V267H705V156Z" fill="black"/>
<rect y="215" width="379" height="52" fill="#7C7C7C"/>
<rect x="16" y="233" width="72" height="8" fill="#D9D9D9"/>
<rect x="112" y="233" width="72" height="8" fill="#D9D9D9"/>
<rect x="197" y="233" width="72" height="8" fill="#D9D9D9"/>
<rect x="293" y="233" width="72" height="8" fill="#D9D9D9"/>
<rect x="379" y="215" width="379" height="52" fill="#7C7C7C"/>
<rect x="395" y="233" width="72" height="8" fill="#D9D9D9"/>
<rect x="491" y="233" width="72" height="8" fill="#D9D9D9"/>
<rect x="576" y="233" width="72" height="8" fill="#D9D9D9"/>
<rect x="672" y="233" width="72" height="8" fill="#D9D9D9"/>
</g>
<defs>
<clipPath id="clip0_13_58">
<rect width="758" height="267" fill="white"/>
</clipPath>
</defs>
</svg>
