<svg width="720" height="267" viewBox="0 0 720 267" fill="none" xmlns="http://www.w3.org/2000/svg">
<path d="M0 156H50.343V211.5V267H0V156Z" fill="black"/>
<path d="M0 156H50.343V211.5V267H0V156Z" fill="black"/>
<path d="M0 156H50.343V211.5V267H0V156Z" fill="black"/>
<path d="M0 156H50.343V211.5V267H0V156Z" fill="black"/>
<path d="M0 156H50.343V211.5V267H0V156Z" fill="black"/>
<path d="M0 156H50.343V211.5V267H0V156Z" fill="black"/>
<path d="M0 156H50.343V211.5V267H0V156Z" fill="black"/>
<path d="M0 156H50.343V211.5V267H0V156Z" fill="black"/>
<path d="M0 156H50.343V211.5V267H0V156Z" fill="black"/>
<path d="M0 156H50.343V211.5V267H0V156Z" fill="black"/>
<path d="M0 156H50.343V211.5V267H0V156Z" fill="black"/>
<path d="M0 156H50.343V211.5V267H0V156Z" fill="black"/>
<path d="M0 156H50.343V211.5V267H0V156Z" fill="black"/>
<path d="M0 156H50.343V211.5V267H0V156Z" fill="black"/>
<path d="M0 156H50.343V211.5V267H0V156Z" fill="black"/>
<path d="M0 156H50.343V211.5V267H0V156Z" fill="black"/>
<path d="M0 156H50.343V211.5V267H0V156Z" fill="black"/>
<path d="M0 156H50.343V211.5V267H0V156Z" fill="black"/>
<path d="M0 156H50.343V211.5V267H0V156Z" fill="black"/>
<path d="M0 156H50.343V211.5V267H0V156Z" fill="black"/>
<path d="M0 156H50.343V211.5V267H0V156Z" fill="black"/>
<path d="M0 156H50.343V211.5V267H0V156Z" fill="black"/>
<path d="M0 156H50.343V211.5V267H0V156Z" fill="black"/>
<path d="M0 156H50.343V211.5V267H0V156Z" fill="black"/>
<path d="M0 156H50.343V267H0V156Z" fill="black"/>
<path d="M0 156H50.343V267H0V156Z" fill="black"/>
<path d="M0 156H50.343V267H0V156Z" fill="black"/>
<path d="M131.082 95H181.425V181V267H131.082V95Z" fill="black"/>
<path d="M131.082 95H181.425V181V267H131.082V95Z" fill="black"/>
<path d="M131.082 95H181.425V181V267H131.082V95Z" fill="black"/>
<path d="M131.082 95H181.425V181V267H131.082V95Z" fill="black"/>
<path d="M131.082 95H181.425V181V267H131.082V95Z" fill="black"/>
<path d="M131.082 95H181.425V181V267H131.082V95Z" fill="black"/>
<path d="M131.082 95H181.425V181V267H131.082V95Z" fill="black"/>
<path d="M131.082 95H181.425V181V267H131.082V95Z" fill="black"/>
<path d="M131.082 95H181.425V181V267H131.082V95Z" fill="black"/>
<path d="M131.082 95H181.425V181V267H131.082V95Z" fill="black"/>
<path d="M131.082 95H181.425V181V267H131.082V95Z" fill="black"/>
<path d="M131.082 95H181.425V181V267H131.082V95Z" fill="black"/>
<path d="M131.082 95H181.425V181V267H131.082V95Z" fill="black"/>
<path d="M131.082 95H181.425V181V267H131.082V95Z" fill="black"/>
<path d="M131.082 95H181.425V181V267H131.082V95Z" fill="black"/>
<path d="M131.082 95H181.425V181V267H131.082V95Z" fill="black"/>
<path d="M131.082 95H181.425V181V267H131.082V95Z" fill="black"/>
<path d="M131.082 95H181.425V181V267H131.082V95Z" fill="black"/>
<path d="M131.082 95H181.425V181V267H131.082V95Z" fill="black"/>
<path d="M131.082 95H181.425V181V267H131.082V95Z" fill="black"/>
<path d="M131.082 95H181.425V181V267H131.082V95Z" fill="black"/>
<path d="M131.082 95H181.425V181V267H131.082V95Z" fill="black"/>
<path d="M131.082 95H181.425V181V267H131.082V95Z" fill="black"/>
<path d="M131.082 95H181.425V181V267H131.082V95Z" fill="black"/>
<path d="M131.082 95H181.425V267H131.082V95Z" fill="black"/>
<path d="M131.082 95H181.425V267H131.082V95Z" fill="black"/>
<path d="M131.082 95H181.425V267H131.082V95Z" fill="black"/>
<path d="M81.6887 171H132.032V219V267H81.6887V171Z" fill="black"/>
<path d="M81.6887 171H132.032V219V267H81.6887V171Z" fill="black"/>
<path d="M81.6887 171H132.032V219V267H81.6887V171Z" fill="black"/>
<path d="M81.6887 171H132.032V219V267H81.6887V171Z" fill="black"/>
<path d="M81.6887 171H132.032V219V267H81.6887V171Z" fill="black"/>
<path d="M81.6887 171H132.032V219V267H81.6887V171Z" fill="black"/>
<path d="M81.6887 171H132.032V219V267H81.6887V171Z" fill="black"/>
<path d="M81.6887 171H132.032V219V267H81.6887V171Z" fill="black"/>
<path d="M81.6887 171H132.032V219V267H81.6887V171Z" fill="black"/>
<path d="M81.6887 171H132.032V219V267H81.6887V171Z" fill="black"/>
<path d="M81.6887 171H132.032V219V267H81.6887V171Z" fill="black"/>
<path d="M81.6887 171H132.032V219V267H81.6887V171Z" fill="black"/>
<path d="M81.6887 171H132.032V219V267H81.6887V171Z" fill="black"/>
<path d="M81.6887 171H132.032V219V267H81.6887V171Z" fill="black"/>
<path d="M81.6887 171H132.032V219V267H81.6887V171Z" fill="black"/>
<path d="M81.6887 171H132.032V219V267H81.6887V171Z" fill="black"/>
<path d="M81.6887 171H132.032V219V267H81.6887V171Z" fill="black"/>
<path d="M81.6887 171H132.032V219V267H81.6887V171Z" fill="black"/>
<path d="M81.6887 171H132.032V219V267H81.6887V171Z" fill="black"/>
<path d="M81.6887 171H132.032V219V267H81.6887V171Z" fill="black"/>
<path d="M81.6887 171H132.032V219V267H81.6887V171Z" fill="black"/>
<path d="M81.6887 171H132.032V219V267H81.6887V171Z" fill="black"/>
<path d="M81.6887 171H132.032V219V267H81.6887V171Z" fill="black"/>
<path d="M81.6887 171H132.032V219V267H81.6887V171Z" fill="black"/>
<path d="M81.6887 171H132.032V267H81.6887V171Z" fill="black"/>
<path d="M81.6887 171H132.032V267H81.6887V171Z" fill="black"/>
<path d="M81.6887 171H132.032V267H81.6887V171Z" fill="black"/>
<path d="M41.7942 103H92.1372V185V267H41.7942V103Z" fill="black"/>
<path d="M41.7942 103H92.1372V185V267H41.7942V103Z" fill="black"/>
<path d="M41.7942 103H92.1372V185V267H41.7942V103Z" fill="black"/>
<path d="M41.7942 103H92.1372V185V267H41.7942V103Z" fill="black"/>
<path d="M41.7942 103H92.1372V185V267H41.7942V103Z" fill="black"/>
<path d="M41.7942 103H92.1372V185V267H41.7942V103Z" fill="black"/>
<path d="M41.7942 103H92.1372V185V267H41.7942V103Z" fill="black"/>
<path d="M41.7942 103H92.1372V185V267H41.7942V103Z" fill="black"/>
<path d="M41.7942 103H92.1372V185V267H41.7942V103Z" fill="black"/>
<path d="M41.7942 103H92.1372V185V267H41.7942V103Z" fill="black"/>
<path d="M41.7942 103H92.1372V185V267H41.7942V103Z" fill="black"/>
<path d="M41.7942 103H92.1372V185V267H41.7942V103Z" fill="black"/>
<path d="M41.7942 103H92.1372V185V267H41.7942V103Z" fill="black"/>
<path d="M41.7942 103H92.1372V185V267H41.7942V103Z" fill="black"/>
<path d="M41.7942 103H92.1372V185V267H41.7942V103Z" fill="black"/>
<path d="M41.7942 103H92.1372V185V267H41.7942V103Z" fill="black"/>
<path d="M41.7942 103H92.1372V185V267H41.7942V103Z" fill="black"/>
<path d="M41.7942 103H92.1372V185V267H41.7942V103Z" fill="black"/>
<path d="M41.7942 103H92.1372V185V267H41.7942V103Z" fill="black"/>
<path d="M41.7942 103H92.1372V185V267H41.7942V103Z" fill="black"/>
<path d="M41.7942 103H92.1372V185V267H41.7942V103Z" fill="black"/>
<path d="M41.7942 103H92.1372V185V267H41.7942V103Z" fill="black"/>
<path d="M41.7942 103H92.1372V185V267H41.7942V103Z" fill="black"/>
<path d="M41.7942 103H92.1372V185V267H41.7942V103Z" fill="black"/>
<path d="M41.7942 103H92.1372V267H41.7942V103Z" fill="black"/>
<path d="M41.7942 103H92.1372V267H41.7942V103Z" fill="black"/>
<path d="M41.7942 103H92.1372V267H41.7942V103Z" fill="black"/>
<path d="M180.475 133H230.818V200V267H180.475V133Z" fill="black"/>
<path d="M180.475 133H230.818V200V267H180.475V133Z" fill="black"/>
<path d="M180.475 133H230.818V200V267H180.475V133Z" fill="black"/>
<path d="M180.475 133H230.818V200V267H180.475V133Z" fill="black"/>
<path d="M180.475 133H230.818V200V267H180.475V133Z" fill="black"/>
<path d="M180.475 133H230.818V200V267H180.475V133Z" fill="black"/>
<path d="M180.475 133H230.818V200V267H180.475V133Z" fill="black"/>
<path d="M180.475 133H230.818V200V267H180.475V133Z" fill="black"/>
<path d="M180.475 133H230.818V200V267H180.475V133Z" fill="black"/>
<path d="M180.475 133H230.818V200V267H180.475V133Z" fill="black"/>
<path d="M180.475 133H230.818V200V267H180.475V133Z" fill="black"/>
<path d="M180.475 133H230.818V200V267H180.475V133Z" fill="black"/>
<path d="M180.475 133H230.818V200V267H180.475V133Z" fill="black"/>
<path d="M180.475 133H230.818V200V267H180.475V133Z" fill="black"/>
<path d="M180.475 133H230.818V200V267H180.475V133Z" fill="black"/>
<path d="M180.475 133H230.818V200V267H180.475V133Z" fill="black"/>
<path d="M180.475 133H230.818V200V267H180.475V133Z" fill="black"/>
<path d="M180.475 133H230.818V200V267H180.475V133Z" fill="black"/>
<path d="M180.475 133H230.818V200V267H180.475V133Z" fill="black"/>
<path d="M180.475 133H230.818V200V267H180.475V133Z" fill="black"/>
<path d="M180.475 133H230.818V200V267H180.475V133Z" fill="black"/>
<path d="M180.475 133H230.818V200V267H180.475V133Z" fill="black"/>
<path d="M180.475 133H230.818V200V267H180.475V133Z" fill="black"/>
<path d="M180.475 133H230.818V200V267H180.475V133Z" fill="black"/>
<path d="M180.475 133H230.818V267H180.475V133Z" fill="black"/>
<path d="M180.475 133H230.818V267H180.475V133Z" fill="black"/>
<path d="M180.475 133H230.818V267H180.475V133Z" fill="black"/>
<path d="M229.868 156H261.214V211.5V267H229.868V156Z" fill="black"/>
<path d="M229.868 156H261.214V211.5V267H229.868V156Z" fill="black"/>
<path d="M229.868 156H261.214V211.5V267H229.868V156Z" fill="black"/>
<path d="M229.868 156H261.214V211.5V267H229.868V156Z" fill="black"/>
<path d="M229.868 156H261.214V211.5V267H229.868V156Z" fill="black"/>
<path d="M229.868 156H261.214V211.5V267H229.868V156Z" fill="black"/>
<path d="M229.868 156H261.214V211.5V267H229.868V156Z" fill="black"/>
<path d="M229.868 156H261.214V211.5V267H229.868V156Z" fill="black"/>
<path d="M229.868 156H261.214V211.5V267H229.868V156Z" fill="black"/>
<path d="M229.868 156H261.214V211.5V267H229.868V156Z" fill="black"/>
<path d="M229.868 156H261.214V211.5V267H229.868V156Z" fill="black"/>
<path d="M229.868 156H261.214V211.5V267H229.868V156Z" fill="black"/>
<path d="M229.868 156H261.214V211.5V267H229.868V156Z" fill="black"/>
<path d="M229.868 156H261.214V211.5V267H229.868V156Z" fill="black"/>
<path d="M229.868 156H261.214V211.5V267H229.868V156Z" fill="black"/>
<path d="M229.868 156H261.214V211.5V267H229.868V156Z" fill="black"/>
<path d="M229.868 156H261.214V211.5V267H229.868V156Z" fill="black"/>
<path d="M229.868 156H261.214V211.5V267H229.868V156Z" fill="black"/>
<path d="M229.868 156H261.214V211.5V267H229.868V156Z" fill="black"/>
<path d="M229.868 156H261.214V211.5V267H229.868V156Z" fill="black"/>
<path d="M229.868 156H261.214V211.5V267H229.868V156Z" fill="black"/>
<path d="M229.868 156H261.214V211.5V267H229.868V156Z" fill="black"/>
<path d="M229.868 156H261.214V211.5V267H229.868V156Z" fill="black"/>
<path d="M229.868 156H261.214V211.5V267H229.868V156Z" fill="black"/>
<path d="M229.868 156H261.214V267H229.868V156Z" fill="black"/>
<path d="M229.868 156H261.214V267H229.868V156Z" fill="black"/>
<path d="M229.868 156H261.214V267H229.868V156Z" fill="black"/>
<path d="M259.314 133H309.657V200V267H259.314V133Z" fill="black"/>
<path d="M259.314 133H309.657V200V267H259.314V133Z" fill="black"/>
<path d="M259.314 133H309.657V200V267H259.314V133Z" fill="black"/>
<path d="M259.314 133H309.657V200V267H259.314V133Z" fill="black"/>
<path d="M259.314 133H309.657V200V267H259.314V133Z" fill="black"/>
<path d="M259.314 133H309.657V200V267H259.314V133Z" fill="black"/>
<path d="M259.314 133H309.657V200V267H259.314V133Z" fill="black"/>
<path d="M259.314 133H309.657V200V267H259.314V133Z" fill="black"/>
<path d="M259.314 133H309.657V200V267H259.314V133Z" fill="black"/>
<path d="M259.314 133H309.657V200V267H259.314V133Z" fill="black"/>
<path d="M259.314 133H309.657V200V267H259.314V133Z" fill="black"/>
<path d="M259.314 133H309.657V200V267H259.314V133Z" fill="black"/>
<path d="M259.314 133H309.657V200V267H259.314V133Z" fill="black"/>
<path d="M259.314 133H309.657V200V267H259.314V133Z" fill="black"/>
<path d="M259.314 133H309.657V200V267H259.314V133Z" fill="black"/>
<path d="M259.314 133H309.657V200V267H259.314V133Z" fill="black"/>
<path d="M259.314 133H309.657V200V267H259.314V133Z" fill="black"/>
<path d="M259.314 133H309.657V200V267H259.314V133Z" fill="black"/>
<path d="M259.314 133H309.657V200V267H259.314V133Z" fill="black"/>
<path d="M259.314 133H309.657V200V267H259.314V133Z" fill="black"/>
<path d="M259.314 133H309.657V200V267H259.314V133Z" fill="black"/>
<path d="M259.314 133H309.657V200V267H259.314V133Z" fill="black"/>
<path d="M259.314 133H309.657V200V267H259.314V133Z" fill="black"/>
<path d="M259.314 133H309.657V200V267H259.314V133Z" fill="black"/>
<path d="M259.314 133H309.657V267H259.314V133Z" fill="black"/>
<path d="M259.314 133H309.657V267H259.314V133Z" fill="black"/>
<path d="M259.314 133H309.657V267H259.314V133Z" fill="black"/>
<path d="M309.657 156H360V211.5V267H309.657V156Z" fill="black"/>
<path d="M309.657 156H360V211.5V267H309.657V156Z" fill="black"/>
<path d="M309.657 156H360V211.5V267H309.657V156Z" fill="black"/>
<path d="M309.657 156H360V211.5V267H309.657V156Z" fill="black"/>
<path d="M309.657 156H360V211.5V267H309.657V156Z" fill="black"/>
<path d="M309.657 156H360V211.5V267H309.657V156Z" fill="black"/>
<path d="M309.657 156H360V211.5V267H309.657V156Z" fill="black"/>
<path d="M309.657 156H360V211.5V267H309.657V156Z" fill="black"/>
<path d="M309.657 156H360V211.5V267H309.657V156Z" fill="black"/>
<path d="M309.657 156H360V211.5V267H309.657V156Z" fill="black"/>
<path d="M309.657 156H360V211.5V267H309.657V156Z" fill="black"/>
<path d="M309.657 156H360V211.5V267H309.657V156Z" fill="black"/>
<path d="M309.657 156H360V211.5V267H309.657V156Z" fill="black"/>
<path d="M309.657 156H360V211.5V267H309.657V156Z" fill="black"/>
<path d="M309.657 156H360V211.5V267H309.657V156Z" fill="black"/>
<path d="M309.657 156H360V211.5V267H309.657V156Z" fill="black"/>
<path d="M309.657 156H360V211.5V267H309.657V156Z" fill="black"/>
<path d="M309.657 156H360V211.5V267H309.657V156Z" fill="black"/>
<path d="M309.657 156H360V211.5V267H309.657V156Z" fill="black"/>
<path d="M309.657 156H360V211.5V267H309.657V156Z" fill="black"/>
<path d="M309.657 156H360V211.5V267H309.657V156Z" fill="black"/>
<path d="M309.657 156H360V211.5V267H309.657V156Z" fill="black"/>
<path d="M309.657 156H360V211.5V267H309.657V156Z" fill="black"/>
<path d="M309.657 156H360V211.5V267H309.657V156Z" fill="black"/>
<path d="M309.657 156H360V267H309.657V156Z" fill="black"/>
<path d="M309.657 156H360V267H309.657V156Z" fill="black"/>
<path d="M309.657 156H360V267H309.657V156Z" fill="black"/>
<path d="M360 156H410.343V211.5V267H360V156Z" fill="black"/>
<path d="M360 156H410.343V211.5V267H360V156Z" fill="black"/>
<path d="M360 156H410.343V211.5V267H360V156Z" fill="black"/>
<path d="M360 156H410.343V211.5V267H360V156Z" fill="black"/>
<path d="M360 156H410.343V211.5V267H360V156Z" fill="black"/>
<path d="M360 156H410.343V211.5V267H360V156Z" fill="black"/>
<path d="M360 156H410.343V211.5V267H360V156Z" fill="black"/>
<path d="M360 156H410.343V211.5V267H360V156Z" fill="black"/>
<path d="M360 156H410.343V211.5V267H360V156Z" fill="black"/>
<path d="M360 156H410.343V211.5V267H360V156Z" fill="black"/>
<path d="M360 156H410.343V211.5V267H360V156Z" fill="black"/>
<path d="M360 156H410.343V211.5V267H360V156Z" fill="black"/>
<path d="M360 156H410.343V211.5V267H360V156Z" fill="black"/>
<path d="M360 156H410.343V211.5V267H360V156Z" fill="black"/>
<path d="M360 156H410.343V211.5V267H360V156Z" fill="black"/>
<path d="M360 156H410.343V211.5V267H360V156Z" fill="black"/>
<path d="M360 156H410.343V211.5V267H360V156Z" fill="black"/>
<path d="M360 156H410.343V211.5V267H360V156Z" fill="black"/>
<path d="M360 156H410.343V211.5V267H360V156Z" fill="black"/>
<path d="M360 156H410.343V211.5V267H360V156Z" fill="black"/>
<path d="M360 156H410.343V211.5V267H360V156Z" fill="black"/>
<path d="M360 156H410.343V211.5V267H360V156Z" fill="black"/>
<path d="M360 156H410.343V211.5V267H360V156Z" fill="black"/>
<path d="M360 156H410.343V211.5V267H360V156Z" fill="black"/>
<path d="M360 156H410.343V267H360V156Z" fill="black"/>
<path d="M360 156H410.343V267H360V156Z" fill="black"/>
<path d="M360 156H410.343V267H360V156Z" fill="black"/>
<path d="M491.082 95H541.425V181V267H491.082V95Z" fill="black"/>
<path d="M491.082 95H541.425V181V267H491.082V95Z" fill="black"/>
<path d="M491.082 95H541.425V181V267H491.082V95Z" fill="black"/>
<path d="M491.082 95H541.425V181V267H491.082V95Z" fill="black"/>
<path d="M491.082 95H541.425V181V267H491.082V95Z" fill="black"/>
<path d="M491.082 95H541.425V181V267H491.082V95Z" fill="black"/>
<path d="M491.082 95H541.425V181V267H491.082V95Z" fill="black"/>
<path d="M491.082 95H541.425V181V267H491.082V95Z" fill="black"/>
<path d="M491.082 95H541.425V181V267H491.082V95Z" fill="black"/>
<path d="M491.082 95H541.425V181V267H491.082V95Z" fill="black"/>
<path d="M491.082 95H541.425V181V267H491.082V95Z" fill="black"/>
<path d="M491.082 95H541.425V181V267H491.082V95Z" fill="black"/>
<path d="M491.082 95H541.425V181V267H491.082V95Z" fill="black"/>
<path d="M491.082 95H541.425V181V267H491.082V95Z" fill="black"/>
<path d="M491.082 95H541.425V181V267H491.082V95Z" fill="black"/>
<path d="M491.082 95H541.425V181V267H491.082V95Z" fill="black"/>
<path d="M491.082 95H541.425V181V267H491.082V95Z" fill="black"/>
<path d="M491.082 95H541.425V181V267H491.082V95Z" fill="black"/>
<path d="M491.082 95H541.425V181V267H491.082V95Z" fill="black"/>
<path d="M491.082 95H541.425V181V267H491.082V95Z" fill="black"/>
<path d="M491.082 95H541.425V181V267H491.082V95Z" fill="black"/>
<path d="M491.082 95H541.425V181V267H491.082V95Z" fill="black"/>
<path d="M491.082 95H541.425V181V267H491.082V95Z" fill="black"/>
<path d="M491.082 95H541.425V181V267H491.082V95Z" fill="black"/>
<path d="M491.082 95H541.425V267H491.082V95Z" fill="black"/>
<path d="M491.082 95H541.425V267H491.082V95Z" fill="black"/>
<path d="M491.082 95H541.425V267H491.082V95Z" fill="black"/>
<path d="M441.689 171H492.032V219V267H441.689V171Z" fill="black"/>
<path d="M441.689 171H492.032V219V267H441.689V171Z" fill="black"/>
<path d="M441.689 171H492.032V219V267H441.689V171Z" fill="black"/>
<path d="M441.689 171H492.032V219V267H441.689V171Z" fill="black"/>
<path d="M441.689 171H492.032V219V267H441.689V171Z" fill="black"/>
<path d="M441.689 171H492.032V219V267H441.689V171Z" fill="black"/>
<path d="M441.689 171H492.032V219V267H441.689V171Z" fill="black"/>
<path d="M441.689 171H492.032V219V267H441.689V171Z" fill="black"/>
<path d="M441.689 171H492.032V219V267H441.689V171Z" fill="black"/>
<path d="M441.689 171H492.032V219V267H441.689V171Z" fill="black"/>
<path d="M441.689 171H492.032V219V267H441.689V171Z" fill="black"/>
<path d="M441.689 171H492.032V219V267H441.689V171Z" fill="black"/>
<path d="M441.689 171H492.032V219V267H441.689V171Z" fill="black"/>
<path d="M441.689 171H492.032V219V267H441.689V171Z" fill="black"/>
<path d="M441.689 171H492.032V219V267H441.689V171Z" fill="black"/>
<path d="M441.689 171H492.032V219V267H441.689V171Z" fill="black"/>
<path d="M441.689 171H492.032V219V267H441.689V171Z" fill="black"/>
<path d="M441.689 171H492.032V219V267H441.689V171Z" fill="black"/>
<path d="M441.689 171H492.032V219V267H441.689V171Z" fill="black"/>
<path d="M441.689 171H492.032V219V267H441.689V171Z" fill="black"/>
<path d="M441.689 171H492.032V219V267H441.689V171Z" fill="black"/>
<path d="M441.689 171H492.032V219V267H441.689V171Z" fill="black"/>
<path d="M441.689 171H492.032V219V267H441.689V171Z" fill="black"/>
<path d="M441.689 171H492.032V219V267H441.689V171Z" fill="black"/>
<path d="M441.689 171H492.032V267H441.689V171Z" fill="black"/>
<path d="M441.689 171H492.032V267H441.689V171Z" fill="black"/>
<path d="M441.689 171H492.032V267H441.689V171Z" fill="black"/>
<path d="M401.794 103H452.137V185V267H401.794V103Z" fill="black"/>
<path d="M401.794 103H452.137V185V267H401.794V103Z" fill="black"/>
<path d="M401.794 103H452.137V185V267H401.794V103Z" fill="black"/>
<path d="M401.794 103H452.137V185V267H401.794V103Z" fill="black"/>
<path d="M401.794 103H452.137V185V267H401.794V103Z" fill="black"/>
<path d="M401.794 103H452.137V185V267H401.794V103Z" fill="black"/>
<path d="M401.794 103H452.137V185V267H401.794V103Z" fill="black"/>
<path d="M401.794 103H452.137V185V267H401.794V103Z" fill="black"/>
<path d="M401.794 103H452.137V185V267H401.794V103Z" fill="black"/>
<path d="M401.794 103H452.137V185V267H401.794V103Z" fill="black"/>
<path d="M401.794 103H452.137V185V267H401.794V103Z" fill="black"/>
<path d="M401.794 103H452.137V185V267H401.794V103Z" fill="black"/>
<path d="M401.794 103H452.137V185V267H401.794V103Z" fill="black"/>
<path d="M401.794 103H452.137V185V267H401.794V103Z" fill="black"/>
<path d="M401.794 103H452.137V185V267H401.794V103Z" fill="black"/>
<path d="M401.794 103H452.137V185V267H401.794V103Z" fill="black"/>
<path d="M401.794 103H452.137V185V267H401.794V103Z" fill="black"/>
<path d="M401.794 103H452.137V185V267H401.794V103Z" fill="black"/>
<path d="M401.794 103H452.137V185V267H401.794V103Z" fill="black"/>
<path d="M401.794 103H452.137V185V267H401.794V103Z" fill="black"/>
<path d="M401.794 103H452.137V185V267H401.794V103Z" fill="black"/>
<path d="M401.794 103H452.137V185V267H401.794V103Z" fill="black"/>
<path d="M401.794 103H452.137V185V267H401.794V103Z" fill="black"/>
<path d="M401.794 103H452.137V185V267H401.794V103Z" fill="black"/>
<path d="M401.794 103H452.137V267H401.794V103Z" fill="black"/>
<path d="M401.794 103H452.137V267H401.794V103Z" fill="black"/>
<path d="M401.794 103H452.137V267H401.794V103Z" fill="black"/>
<path d="M540.475 133H590.818V200V267H540.475V133Z" fill="black"/>
<path d="M540.475 133H590.818V200V267H540.475V133Z" fill="black"/>
<path d="M540.475 133H590.818V200V267H540.475V133Z" fill="black"/>
<path d="M540.475 133H590.818V200V267H540.475V133Z" fill="black"/>
<path d="M540.475 133H590.818V200V267H540.475V133Z" fill="black"/>
<path d="M540.475 133H590.818V200V267H540.475V133Z" fill="black"/>
<path d="M540.475 133H590.818V200V267H540.475V133Z" fill="black"/>
<path d="M540.475 133H590.818V200V267H540.475V133Z" fill="black"/>
<path d="M540.475 133H590.818V200V267H540.475V133Z" fill="black"/>
<path d="M540.475 133H590.818V200V267H540.475V133Z" fill="black"/>
<path d="M540.475 133H590.818V200V267H540.475V133Z" fill="black"/>
<path d="M540.475 133H590.818V200V267H540.475V133Z" fill="black"/>
<path d="M540.475 133H590.818V200V267H540.475V133Z" fill="black"/>
<path d="M540.475 133H590.818V200V267H540.475V133Z" fill="black"/>
<path d="M540.475 133H590.818V200V267H540.475V133Z" fill="black"/>
<path d="M540.475 133H590.818V200V267H540.475V133Z" fill="black"/>
<path d="M540.475 133H590.818V200V267H540.475V133Z" fill="black"/>
<path d="M540.475 133H590.818V200V267H540.475V133Z" fill="black"/>
<path d="M540.475 133H590.818V200V267H540.475V133Z" fill="black"/>
<path d="M540.475 133H590.818V200V267H540.475V133Z" fill="black"/>
<path d="M540.475 133H590.818V200V267H540.475V133Z" fill="black"/>
<path d="M540.475 133H590.818V200V267H540.475V133Z" fill="black"/>
<path d="M540.475 133H590.818V200V267H540.475V133Z" fill="black"/>
<path d="M540.475 133H590.818V200V267H540.475V133Z" fill="black"/>
<path d="M540.475 133H590.818V267H540.475V133Z" fill="black"/>
<path d="M540.475 133H590.818V267H540.475V133Z" fill="black"/>
<path d="M540.475 133H590.818V267H540.475V133Z" fill="black"/>
<path d="M589.868 156H621.214V211.5V267H589.868V156Z" fill="black"/>
<path d="M589.868 156H621.214V211.5V267H589.868V156Z" fill="black"/>
<path d="M589.868 156H621.214V211.5V267H589.868V156Z" fill="black"/>
<path d="M589.868 156H621.214V211.5V267H589.868V156Z" fill="black"/>
<path d="M589.868 156H621.214V211.5V267H589.868V156Z" fill="black"/>
<path d="M589.868 156H621.214V211.5V267H589.868V156Z" fill="black"/>
<path d="M589.868 156H621.214V211.5V267H589.868V156Z" fill="black"/>
<path d="M589.868 156H621.214V211.5V267H589.868V156Z" fill="black"/>
<path d="M589.868 156H621.214V211.5V267H589.868V156Z" fill="black"/>
<path d="M589.868 156H621.214V211.5V267H589.868V156Z" fill="black"/>
<path d="M589.868 156H621.214V211.5V267H589.868V156Z" fill="black"/>
<path d="M589.868 156H621.214V211.5V267H589.868V156Z" fill="black"/>
<path d="M589.868 156H621.214V211.5V267H589.868V156Z" fill="black"/>
<path d="M589.868 156H621.214V211.5V267H589.868V156Z" fill="black"/>
<path d="M589.868 156H621.214V211.5V267H589.868V156Z" fill="black"/>
<path d="M589.868 156H621.214V211.5V267H589.868V156Z" fill="black"/>
<path d="M589.868 156H621.214V211.5V267H589.868V156Z" fill="black"/>
<path d="M589.868 156H621.214V211.5V267H589.868V156Z" fill="black"/>
<path d="M589.868 156H621.214V211.5V267H589.868V156Z" fill="black"/>
<path d="M589.868 156H621.214V211.5V267H589.868V156Z" fill="black"/>
<path d="M589.868 156H621.214V211.5V267H589.868V156Z" fill="black"/>
<path d="M589.868 156H621.214V211.5V267H589.868V156Z" fill="black"/>
<path d="M589.868 156H621.214V211.5V267H589.868V156Z" fill="black"/>
<path d="M589.868 156H621.214V211.5V267H589.868V156Z" fill="black"/>
<path d="M589.868 156H621.214V267H589.868V156Z" fill="black"/>
<path d="M589.868 156H621.214V267H589.868V156Z" fill="black"/>
<path d="M589.868 156H621.214V267H589.868V156Z" fill="black"/>
<path d="M619.314 133H669.657V200V267H619.314V133Z" fill="black"/>
<path d="M619.314 133H669.657V200V267H619.314V133Z" fill="black"/>
<path d="M619.314 133H669.657V200V267H619.314V133Z" fill="black"/>
<path d="M619.314 133H669.657V200V267H619.314V133Z" fill="black"/>
<path d="M619.314 133H669.657V200V267H619.314V133Z" fill="black"/>
<path d="M619.314 133H669.657V200V267H619.314V133Z" fill="black"/>
<path d="M619.314 133H669.657V200V267H619.314V133Z" fill="black"/>
<path d="M619.314 133H669.657V200V267H619.314V133Z" fill="black"/>
<path d="M619.314 133H669.657V200V267H619.314V133Z" fill="black"/>
<path d="M619.314 133H669.657V200V267H619.314V133Z" fill="black"/>
<path d="M619.314 133H669.657V200V267H619.314V133Z" fill="black"/>
<path d="M619.314 133H669.657V200V267H619.314V133Z" fill="black"/>
<path d="M619.314 133H669.657V200V267H619.314V133Z" fill="black"/>
<path d="M619.314 133H669.657V200V267H619.314V133Z" fill="black"/>
<path d="M619.314 133H669.657V200V267H619.314V133Z" fill="black"/>
<path d="M619.314 133H669.657V200V267H619.314V133Z" fill="black"/>
<path d="M619.314 133H669.657V200V267H619.314V133Z" fill="black"/>
<path d="M619.314 133H669.657V200V267H619.314V133Z" fill="black"/>
<path d="M619.314 133H669.657V200V267H619.314V133Z" fill="black"/>
<path d="M619.314 133H669.657V200V267H619.314V133Z" fill="black"/>
<path d="M619.314 133H669.657V200V267H619.314V133Z" fill="black"/>
<path d="M619.314 133H669.657V200V267H619.314V133Z" fill="black"/>
<path d="M619.314 133H669.657V200V267H619.314V133Z" fill="black"/>
<path d="M619.314 133H669.657V200V267H619.314V133Z" fill="black"/>
<path d="M619.314 133H669.657V267H619.314V133Z" fill="black"/>
<path d="M619.314 133H669.657V267H619.314V133Z" fill="black"/>
<path d="M619.314 133H669.657V267H619.314V133Z" fill="black"/>
<path d="M669.657 156H720V211.5V267H669.657V156Z" fill="black"/>
<path d="M669.657 156H720V211.5V267H669.657V156Z" fill="black"/>
<path d="M669.657 156H720V211.5V267H669.657V156Z" fill="black"/>
<path d="M669.657 156H720V211.5V267H669.657V156Z" fill="black"/>
<path d="M669.657 156H720V211.5V267H669.657V156Z" fill="black"/>
<path d="M669.657 156H720V211.5V267H669.657V156Z" fill="black"/>
<path d="M669.657 156H720V211.5V267H669.657V156Z" fill="black"/>
<path d="M669.657 156H720V211.5V267H669.657V156Z" fill="black"/>
<path d="M669.657 156H720V211.5V267H669.657V156Z" fill="black"/>
<path d="M669.657 156H720V211.5V267H669.657V156Z" fill="black"/>
<path d="M669.657 156H720V211.5V267H669.657V156Z" fill="black"/>
<path d="M669.657 156H720V211.5V267H669.657V156Z" fill="black"/>
<path d="M669.657 156H720V211.5V267H669.657V156Z" fill="black"/>
<path d="M669.657 156H720V211.5V267H669.657V156Z" fill="black"/>
<path d="M669.657 156H720V211.5V267H669.657V156Z" fill="black"/>
<path d="M669.657 156H720V211.5V267H669.657V156Z" fill="black"/>
<path d="M669.657 156H720V211.5V267H669.657V156Z" fill="black"/>
<path d="M669.657 156H720V211.5V267H669.657V156Z" fill="black"/>
<path d="M669.657 156H720V211.5V267H669.657V156Z" fill="black"/>
<path d="M669.657 156H720V211.5V267H669.657V156Z" fill="black"/>
<path d="M669.657 156H720V211.5V267H669.657V156Z" fill="black"/>
<path d="M669.657 156H720V211.5V267H669.657V156Z" fill="black"/>
<path d="M669.657 156H720V211.5V267H669.657V156Z" fill="black"/>
<path d="M669.657 156H720V211.5V267H669.657V156Z" fill="black"/>
<path d="M669.657 156H720V267H669.657V156Z" fill="black"/>
<path d="M669.657 156H720V267H669.657V156Z" fill="black"/>
<path d="M669.657 156H720V267H669.657V156Z" fill="black"/>
<rect y="215" width="360" height="52" fill="#7C7C7C"/>
<rect x="15.1979" y="233" width="68.3905" height="8" fill="#D9D9D9"/>
<rect x="106.385" y="233" width="68.3905" height="8" fill="#D9D9D9"/>
<rect x="187.124" y="233" width="68.3905" height="8" fill="#D9D9D9"/>
<rect x="278.311" y="233" width="68.3905" height="8" fill="#D9D9D9"/>
<rect x="360" y="215" width="360" height="52" fill="#7C7C7C"/>
<rect x="375.198" y="233" width="68.3905" height="8" fill="#D9D9D9"/>
<rect x="466.385" y="233" width="68.3905" height="8" fill="#D9D9D9"/>
<rect x="547.124" y="233" width="68.3905" height="8" fill="#D9D9D9"/>
<rect x="638.311" y="233" width="68.3905" height="8" fill="#D9D9D9"/>
</svg>
