<svg width="176" height="65" viewBox="0 0 176 65" fill="none" xmlns="http://www.w3.org/2000/svg">
<rect width="176" height="65" rx="3" fill="white"/>
<path d="M7.40909 14.3636H9.09091L13.0455 24.0227H13.1818L17.1364 14.3636H18.8182V26H17.5V17.1591H17.3864L13.75 26H12.4773L8.84091 17.1591H8.72727V26H7.40909V14.3636ZM25.0071 26.1818C24.2192 26.1818 23.5279 25.9943 22.9332 25.6193C22.3423 25.2443 21.8802 24.7197 21.5469 24.0455C21.2173 23.3712 21.0526 22.5833 21.0526 21.6818C21.0526 20.7727 21.2173 19.9792 21.5469 19.3011C21.8802 18.6231 22.3423 18.0966 22.9332 17.7216C23.5279 17.3466 24.2192 17.1591 25.0071 17.1591C25.795 17.1591 26.4844 17.3466 27.0753 17.7216C27.67 18.0966 28.1321 18.6231 28.4616 19.3011C28.795 19.9792 28.9616 20.7727 28.9616 21.6818C28.9616 22.5833 28.795 23.3712 28.4616 24.0455C28.1321 24.7197 27.67 25.2443 27.0753 25.6193C26.4844 25.9943 25.795 26.1818 25.0071 26.1818ZM25.0071 24.9773C25.6056 24.9773 26.098 24.8239 26.4844 24.517C26.8707 24.2102 27.1567 23.8068 27.3423 23.3068C27.5279 22.8068 27.6207 22.2652 27.6207 21.6818C27.6207 21.0985 27.5279 20.5549 27.3423 20.0511C27.1567 19.5473 26.8707 19.1402 26.4844 18.8295C26.098 18.5189 25.6056 18.3636 25.0071 18.3636C24.4086 18.3636 23.9162 18.5189 23.5298 18.8295C23.1435 19.1402 22.8575 19.5473 22.6719 20.0511C22.4863 20.5549 22.3935 21.0985 22.3935 21.6818C22.3935 22.2652 22.4863 22.8068 22.6719 23.3068C22.8575 23.8068 23.1435 24.2102 23.5298 24.517C23.9162 24.8239 24.4086 24.9773 25.0071 24.9773ZM34.304 26.1818C33.5767 26.1818 32.9347 25.9981 32.3778 25.6307C31.821 25.2595 31.3854 24.7367 31.071 24.0625C30.7566 23.3845 30.5994 22.5833 30.5994 21.6591C30.5994 20.7424 30.7566 19.947 31.071 19.2727C31.3854 18.5985 31.8229 18.0777 32.3835 17.7102C32.9441 17.3428 33.5919 17.1591 34.3267 17.1591C34.8949 17.1591 35.3438 17.2538 35.6733 17.4432C36.0066 17.6288 36.2604 17.8409 36.4347 18.0795C36.6127 18.3144 36.7509 18.5076 36.8494 18.6591H36.9631V14.3636H38.304V26H37.0085V24.6591H36.8494C36.7509 24.8182 36.6108 25.0189 36.429 25.2614C36.2472 25.5 35.9877 25.714 35.6506 25.9034C35.3134 26.089 34.8646 26.1818 34.304 26.1818ZM34.4858 24.9773C35.0237 24.9773 35.4782 24.8371 35.8494 24.5568C36.2206 24.2727 36.5028 23.8807 36.696 23.3807C36.8892 22.8769 36.9858 22.2955 36.9858 21.6364C36.9858 20.9848 36.8911 20.4148 36.7017 19.9261C36.5123 19.4337 36.232 19.0511 35.8608 18.7784C35.4896 18.5019 35.0313 18.3636 34.4858 18.3636C33.9176 18.3636 33.4441 18.5095 33.0653 18.8011C32.6903 19.089 32.4081 19.4811 32.2188 19.9773C32.0331 20.4697 31.9403 21.0227 31.9403 21.6364C31.9403 22.2576 32.035 22.822 32.2244 23.3295C32.4176 23.8333 32.7017 24.2348 33.0767 24.5341C33.4555 24.8295 33.9252 24.9773 34.4858 24.9773ZM44.6051 26.1818C43.7642 26.1818 43.0388 25.9962 42.429 25.625C41.8229 25.25 41.3551 24.7273 41.0256 24.0568C40.6998 23.3826 40.5369 22.5985 40.5369 21.7045C40.5369 20.8106 40.6998 20.0227 41.0256 19.3409C41.3551 18.6553 41.8134 18.1212 42.4006 17.7386C42.9915 17.3523 43.6809 17.1591 44.4688 17.1591C44.9233 17.1591 45.3722 17.2348 45.8153 17.3864C46.2585 17.5379 46.6619 17.7841 47.0256 18.125C47.3892 18.4621 47.679 18.9091 47.8949 19.4659C48.1108 20.0227 48.2188 20.7083 48.2188 21.5227V22.0909H41.4915V20.9318H46.8551C46.8551 20.4394 46.7566 20 46.5597 19.6136C46.3665 19.2273 46.09 18.9223 45.7301 18.6989C45.3741 18.4754 44.9536 18.3636 44.4688 18.3636C43.9347 18.3636 43.4725 18.4962 43.0824 18.7614C42.696 19.0227 42.3987 19.3636 42.1903 19.7841C41.982 20.2045 41.8778 20.6553 41.8778 21.1364V21.9091C41.8778 22.5682 41.9915 23.1269 42.2188 23.5852C42.4498 24.0398 42.7699 24.3864 43.179 24.625C43.5881 24.8598 44.0634 24.9773 44.6051 24.9773C44.9574 24.9773 45.2756 24.928 45.5597 24.8295C45.8475 24.7273 46.0956 24.5758 46.304 24.375C46.5123 24.1705 46.6733 23.9167 46.7869 23.6136L48.0824 23.9773C47.946 24.4167 47.7169 24.803 47.3949 25.1364C47.0729 25.4659 46.6752 25.7235 46.2017 25.9091C45.7282 26.0909 45.196 26.1818 44.6051 26.1818ZM51.5994 14.3636V26H50.2585V14.3636H51.5994Z" fill="black"/>
<rect x="17" y="30" width="151" height="25" rx="5" fill="#FF2E00" fill-opacity="0.69"/>
</svg>
