<svg width="176" height="65" viewBox="0 0 176 65" fill="none" xmlns="http://www.w3.org/2000/svg">
<rect width="176" height="65" rx="3" fill="white"/>
<path d="M7.40909 26V14.3636H11.3409C12.25 14.3636 12.9962 14.5189 13.5795 14.8295C14.1629 15.1364 14.5947 15.5587 14.875 16.0966C15.1553 16.6345 15.2955 17.2462 15.2955 17.9318C15.2955 18.6174 15.1553 19.2254 14.875 19.7557C14.5947 20.286 14.1648 20.7027 13.5852 21.0057C13.0057 21.3049 12.2652 21.4545 11.3636 21.4545H8.18182V20.1818H11.3182C11.9394 20.1818 12.4394 20.0909 12.8182 19.9091C13.2008 19.7273 13.4773 19.4697 13.6477 19.1364C13.822 18.7992 13.9091 18.3977 13.9091 17.9318C13.9091 17.4659 13.822 17.0587 13.6477 16.7102C13.4735 16.3617 13.1951 16.0928 12.8125 15.9034C12.4299 15.7102 11.9242 15.6136 11.2955 15.6136H8.81818V26H7.40909ZM12.8864 20.7727L15.75 26H14.1136L11.2955 20.7727H12.8864ZM21.027 26.1818C20.1861 26.1818 19.4607 25.9962 18.8509 25.625C18.2448 25.25 17.777 24.7273 17.4474 24.0568C17.1217 23.3826 16.9588 22.5985 16.9588 21.7045C16.9588 20.8106 17.1217 20.0227 17.4474 19.3409C17.777 18.6553 18.2353 18.1212 18.8224 17.7386C19.4134 17.3523 20.1027 17.1591 20.8906 17.1591C21.3452 17.1591 21.794 17.2348 22.2372 17.3864C22.6804 17.5379 23.0838 17.7841 23.4474 18.125C23.8111 18.4621 24.1009 18.9091 24.3168 19.4659C24.5327 20.0227 24.6406 20.7083 24.6406 21.5227V22.0909H17.9134V20.9318H23.277C23.277 20.4394 23.1785 20 22.9815 19.6136C22.7884 19.2273 22.5118 18.9223 22.152 18.6989C21.7959 18.4754 21.3755 18.3636 20.8906 18.3636C20.3565 18.3636 19.8944 18.4962 19.5043 18.7614C19.1179 19.0227 18.8205 19.3636 18.6122 19.7841C18.4039 20.2045 18.2997 20.6553 18.2997 21.1364V21.9091C18.2997 22.5682 18.4134 23.1269 18.6406 23.5852C18.8717 24.0398 19.1918 24.3864 19.6009 24.625C20.0099 24.8598 20.4853 24.9773 21.027 24.9773C21.3793 24.9773 21.6974 24.928 21.9815 24.8295C22.2694 24.7273 22.5175 24.5758 22.7259 24.375C22.9342 24.1705 23.0952 23.9167 23.2088 23.6136L24.5043 23.9773C24.3679 24.4167 24.1387 24.803 23.8168 25.1364C23.4948 25.4659 23.0971 25.7235 22.6236 25.9091C22.1501 26.0909 21.6179 26.1818 21.027 26.1818ZM30.5668 17.2727V18.4091H25.8622V17.2727H30.5668ZM27.2713 26V16.0682C27.2713 15.5682 27.3887 15.1515 27.6236 14.8182C27.8584 14.4848 28.1634 14.2348 28.5384 14.0682C28.9134 13.9015 29.3092 13.8182 29.7259 13.8182C30.0554 13.8182 30.3243 13.8447 30.5327 13.8977C30.741 13.9508 30.8963 14 30.9986 14.0455L30.6122 15.2045C30.544 15.1818 30.4493 15.1534 30.3281 15.1193C30.2107 15.0852 30.0554 15.0682 29.8622 15.0682C29.419 15.0682 29.099 15.1799 28.902 15.4034C28.7088 15.6269 28.6122 15.9545 28.6122 16.3864V26H27.2713ZM35.7457 26.1818C34.9048 26.1818 34.1795 25.9962 33.5696 25.625C32.9635 25.25 32.4957 24.7273 32.1662 24.0568C31.8404 23.3826 31.6776 22.5985 31.6776 21.7045C31.6776 20.8106 31.8404 20.0227 32.1662 19.3409C32.4957 18.6553 32.9541 18.1212 33.5412 17.7386C34.1321 17.3523 34.8215 17.1591 35.6094 17.1591C36.0639 17.1591 36.5128 17.2348 36.956 17.3864C37.3991 17.5379 37.8026 17.7841 38.1662 18.125C38.5298 18.4621 38.8196 18.9091 39.0355 19.4659C39.2514 20.0227 39.3594 20.7083 39.3594 21.5227V22.0909H32.6321V20.9318H37.9957C37.9957 20.4394 37.8973 20 37.7003 19.6136C37.5071 19.2273 37.2306 18.9223 36.8707 18.6989C36.5147 18.4754 36.0942 18.3636 35.6094 18.3636C35.0753 18.3636 34.6132 18.4962 34.223 18.7614C33.8366 19.0227 33.5393 19.3636 33.331 19.7841C33.1226 20.2045 33.0185 20.6553 33.0185 21.1364V21.9091C33.0185 22.5682 33.1321 23.1269 33.3594 23.5852C33.5904 24.0398 33.9105 24.3864 34.3196 24.625C34.7287 24.8598 35.2041 24.9773 35.7457 24.9773C36.098 24.9773 36.4162 24.928 36.7003 24.8295C36.9882 24.7273 37.2363 24.5758 37.4446 24.375C37.6529 24.1705 37.8139 23.9167 37.9276 23.6136L39.223 23.9773C39.0866 24.4167 38.8575 24.803 38.5355 25.1364C38.2135 25.4659 37.8158 25.7235 37.3423 25.9091C36.8688 26.0909 36.3366 26.1818 35.7457 26.1818ZM41.3991 26V17.2727H42.6946V18.5909H42.7855C42.9446 18.1591 43.2325 17.8087 43.6491 17.5398C44.0658 17.2708 44.5355 17.1364 45.0582 17.1364C45.1567 17.1364 45.2798 17.1383 45.4276 17.142C45.5753 17.1458 45.687 17.1515 45.7628 17.1591V18.5227C45.7173 18.5114 45.6132 18.4943 45.4503 18.4716C45.2912 18.4451 45.1226 18.4318 44.9446 18.4318C44.5204 18.4318 44.1416 18.5208 43.8082 18.6989C43.4787 18.8731 43.2173 19.1155 43.0241 19.4261C42.8348 19.733 42.7401 20.0833 42.7401 20.4773V26H41.3991ZM50.7457 26.1818C49.9048 26.1818 49.1795 25.9962 48.5696 25.625C47.9635 25.25 47.4957 24.7273 47.1662 24.0568C46.8404 23.3826 46.6776 22.5985 46.6776 21.7045C46.6776 20.8106 46.8404 20.0227 47.1662 19.3409C47.4957 18.6553 47.9541 18.1212 48.5412 17.7386C49.1321 17.3523 49.8215 17.1591 50.6094 17.1591C51.0639 17.1591 51.5128 17.2348 51.956 17.3864C52.3991 17.5379 52.8026 17.7841 53.1662 18.125C53.5298 18.4621 53.8196 18.9091 54.0355 19.4659C54.2514 20.0227 54.3594 20.7083 54.3594 21.5227V22.0909H47.6321V20.9318H52.9957C52.9957 20.4394 52.8973 20 52.7003 19.6136C52.5071 19.2273 52.2306 18.9223 51.8707 18.6989C51.5147 18.4754 51.0942 18.3636 50.6094 18.3636C50.0753 18.3636 49.6132 18.4962 49.223 18.7614C48.8366 19.0227 48.5393 19.3636 48.331 19.7841C48.1226 20.2045 48.0185 20.6553 48.0185 21.1364V21.9091C48.0185 22.5682 48.1321 23.1269 48.3594 23.5852C48.5904 24.0398 48.9105 24.3864 49.3196 24.625C49.7287 24.8598 50.2041 24.9773 50.7457 24.9773C51.098 24.9773 51.4162 24.928 51.7003 24.8295C51.9882 24.7273 52.2363 24.5758 52.4446 24.375C52.6529 24.1705 52.8139 23.9167 52.9276 23.6136L54.223 23.9773C54.0866 24.4167 53.8575 24.803 53.5355 25.1364C53.2135 25.4659 52.8158 25.7235 52.3423 25.9091C51.8688 26.0909 51.3366 26.1818 50.7457 26.1818ZM57.7401 20.75V26H56.3991V17.2727H57.6946V18.6364H57.8082C58.0128 18.1932 58.3234 17.8371 58.7401 17.5682C59.1567 17.2955 59.6946 17.1591 60.3537 17.1591C60.9446 17.1591 61.4616 17.2803 61.9048 17.5227C62.348 17.7614 62.6927 18.125 62.9389 18.6136C63.1851 19.0985 63.3082 19.7121 63.3082 20.4545V26H61.9673V20.5455C61.9673 19.8598 61.7893 19.3258 61.4332 18.9432C61.0772 18.5568 60.5885 18.3636 59.9673 18.3636C59.5393 18.3636 59.1567 18.4564 58.8196 18.642C58.4863 18.8277 58.223 19.0985 58.0298 19.4545C57.8366 19.8106 57.7401 20.2424 57.7401 20.75ZM69.304 26.1818C68.4858 26.1818 67.7813 25.9886 67.1903 25.6023C66.5994 25.2159 66.1449 24.6837 65.8267 24.0057C65.5085 23.3277 65.3494 22.553 65.3494 21.6818C65.3494 20.7955 65.5123 20.0133 65.8381 19.3352C66.1676 18.6534 66.6259 18.1212 67.2131 17.7386C67.804 17.3523 68.4934 17.1591 69.2812 17.1591C69.8949 17.1591 70.4479 17.2727 70.9403 17.5C71.4328 17.7273 71.8362 18.0455 72.1506 18.4545C72.465 18.8636 72.66 19.3409 72.7358 19.8864H71.3949C71.2926 19.4886 71.0653 19.1364 70.7131 18.8295C70.3646 18.5189 69.8949 18.3636 69.304 18.3636C68.7813 18.3636 68.3229 18.5 67.929 18.7727C67.5388 19.0417 67.2339 19.4223 67.0142 19.9148C66.7983 20.4034 66.6903 20.9773 66.6903 21.6364C66.6903 22.3106 66.7964 22.8977 67.0085 23.3977C67.2244 23.8977 67.5275 24.286 67.9176 24.5625C68.3116 24.839 68.7737 24.9773 69.304 24.9773C69.6525 24.9773 69.9688 24.9167 70.2528 24.7955C70.5369 24.6742 70.7775 24.5 70.9744 24.2727C71.1714 24.0455 71.3116 23.7727 71.3949 23.4545H72.7358C72.66 23.9697 72.4725 24.4337 72.1733 24.8466C71.8778 25.2557 71.4858 25.5814 70.9972 25.8239C70.5123 26.0625 69.9479 26.1818 69.304 26.1818ZM78.3551 26.1818C77.5142 26.1818 76.7888 25.9962 76.179 25.625C75.5729 25.25 75.1051 24.7273 74.7756 24.0568C74.4498 23.3826 74.2869 22.5985 74.2869 21.7045C74.2869 20.8106 74.4498 20.0227 74.7756 19.3409C75.1051 18.6553 75.5634 18.1212 76.1506 17.7386C76.7415 17.3523 77.4309 17.1591 78.2188 17.1591C78.6733 17.1591 79.1222 17.2348 79.5653 17.3864C80.0085 17.5379 80.4119 17.7841 80.7756 18.125C81.1392 18.4621 81.429 18.9091 81.6449 19.4659C81.8608 20.0227 81.9688 20.7083 81.9688 21.5227V22.0909H75.2415V20.9318H80.6051C80.6051 20.4394 80.5066 20 80.3097 19.6136C80.1165 19.2273 79.84 18.9223 79.4801 18.6989C79.1241 18.4754 78.7036 18.3636 78.2188 18.3636C77.6847 18.3636 77.2225 18.4962 76.8324 18.7614C76.446 19.0227 76.1487 19.3636 75.9403 19.7841C75.732 20.2045 75.6278 20.6553 75.6278 21.1364V21.9091C75.6278 22.5682 75.7415 23.1269 75.9688 23.5852C76.1998 24.0398 76.5199 24.3864 76.929 24.625C77.3381 24.8598 77.8134 24.9773 78.3551 24.9773C78.7074 24.9773 79.0256 24.928 79.3097 24.8295C79.5975 24.7273 79.8456 24.5758 80.054 24.375C80.2623 24.1705 80.4233 23.9167 80.5369 23.6136L81.8324 23.9773C81.696 24.4167 81.4669 24.803 81.1449 25.1364C80.8229 25.4659 80.4252 25.7235 79.9517 25.9091C79.4782 26.0909 78.946 26.1818 78.3551 26.1818Z" fill="black"/>
<rect x="16" y="30" width="151" height="25" rx="5" fill="#FF2E00" fill-opacity="0.69"/>
</svg>
