<svg width="60" height="60" viewBox="0 0 60 60" fill="none" xmlns="http://www.w3.org/2000/svg">
<circle cx="30" cy="30" r="30" fill="#F8F8F8" fill-opacity="0.9"/>
<path d="M28.1335 35.1705C27.608 35.1705 27.157 34.9822 26.7805 34.6058C26.4041 34.2294 26.2159 33.7784 26.2159 33.2528C26.2159 32.7273 26.4041 32.2763 26.7805 31.8999C27.157 31.5234 27.608 31.3352 28.1335 31.3352C28.6591 31.3352 29.1101 31.5234 29.4865 31.8999C29.8629 32.2763 30.0511 32.7273 30.0511 33.2528C30.0511 33.6009 29.9624 33.9205 29.7848 34.2116C29.6143 34.5028 29.3835 34.7372 29.0923 34.9148C28.8082 35.0852 28.4886 35.1705 28.1335 35.1705Z" fill="black" fill-opacity="0.86"/>
</svg>
